<svg height="512" viewBox="0 0 512 512" width="512" xmlns="http://www.w3.org/2000/svg"><g id="Filled_outline" data-name="Filled outline"><path d="m400 344h32v16h-32z" fill="#ffb431"/><path d="m150.866 130.222a152.747 152.747 0 0 0 -15.205 16.884l12.677 9.787a133.906 133.906 0 0 1 13.6-15.116z" fill="#ffb431"/><path d="m88 440h336v48h-336z" fill="#d65246"/><path d="m496 216h-89.9c-11.089-69.6-70.44-123.6-142.1-127.736-.058 0 0-8.264 0-8.264a8 8 0 0 0 -3.562-6.656l-10.688-7.125a21.854 21.854 0 0 1 -9.75-18.219 16 16 0 0 1 32 0v8h16v-8a32 32 0 0 0 -64 0 37.821 37.821 0 0 0 16.875 31.531l7.125 4.75s.055 3.978 0 3.982a153.369 153.369 0 0 0 -97.134 41.959l11.069 11.555a136.436 136.436 0 0 1 27.965-20.672 134.273 134.273 0 0 0 -11.113 15.556c-13.642 22.2-22.419 49.759-25.519 79.339h-31.168a134.481 134.481 0 0 1 26.243-59.107l-12.677-9.787a150.538 150.538 0 0 0 -31.666 92.894v192h-8a8 8 0 0 0 -8 8v48a8 8 0 0 0 8 8h320a8 8 0 0 0 8-8v-48a8 8 0 0 0 -8-8h-8s-.072-197.35-.21-200h32.21v112h-16v16h72a8 8 0 0 0 8-8v-128a8 8 0 0 0 -8-8zm-106.121 0h-31.124c-4-38.417-17.359-71.706-36.444-94.7a136.388 136.388 0 0 1 67.568 94.7zm2.121 128h-80s-.027-109.343-.069-112h79.827c.155 2.648.242 112 .242 112zm-80 88v-72h32v72zm-143.837-200h31.906c-.042 2.657-.069 112-.069 112h-32s.065-109.344.163-112zm127.837 112h-32v-112h31.928c.043 2.656.072 112 .072 112zm-32-128v-111.439c5.535 2.49 13.728 13.635 20.656 38.44 5.682 20.338 9.369 45.668 10.738 73zm36.066-77.3a157.9 157.9 0 0 0 -8.679-24.2c9.092 6.085 17.561 14.7 24.958 25.547 13.819 20.263 23.016 46.98 26.295 75.953h-31.23c-1.4-28.823-5.3-55.667-11.344-77.3zm-52.066-34.139v111.439h-31.394c1.369-27.331 5.056-52.661 10.738-73 6.928-24.8 15.121-35.949 20.656-38.439zm0 127.439v112h-32s.029-109.344.072-112zm-48 128v72h-32v-72zm16 0h32v72h-32zm48 0h32v72h-32zm-71.579-214.962c8.168-13.291 17.771-23.63 28.223-30.61a157.683 157.683 0 0 0 -8.71 24.269c-6.044 21.636-9.944 48.48-11.344 77.3h-31.232c2.99-26.569 10.908-51.181 23.063-70.959zm-72.189 86.962h31.916c-.091 2.657-.148 112-.148 112h-32s.08-109.347.232-112zm-.232 128h32v72h-32zm288 120h-304v-32h304zm-48-48v-72h32v72zm128-88h-32v-112h32z"/></g></svg>