<svg height="512" viewBox="0 0 512 512" width="512" xmlns="http://www.w3.org/2000/svg"><g id="Filled_outline" data-name="Filled outline"><path d="m460 260a20 20 0 0 0 -20-20h-32a72 72 0 0 0 -72 72 72 72 0 0 0 72 72h8a32 32 0 0 1 32 32 32 32 0 0 1 -32 32h-80v40h80a72 72 0 0 0 72-72 72 72 0 0 0 -72-72h-8a32 32 0 0 1 -32-32 32 32 0 0 1 32-32h32a20 20 0 0 0 20-20z" fill="#348ed8"/><path d="m192 164.843v-140.843l-7.457 1.864a46.087 46.087 0 0 0 -32.543 30.136h-72a46.087 46.087 0 0 0 -32.543-30.136l-7.457-1.864v424a28.944 28.944 0 0 0 -16 25.889v14.111h320v-105.169a216.311 216.311 0 0 0 -141.531-202.974 16 16 0 0 1 -10.469-15.014z" fill="#348ed8"/><g fill="#2d7dbe"><path d="m80 488h-16v-14.111a36.709 36.709 0 0 1 16-30.443v-139.446h16v144a8 8 0 0 1 -4.422 7.155 20.832 20.832 0 0 0 -11.578 18.734z"/><path d="m136 304h16v184h-16z"/><path d="m152 488h-16a48.054 48.054 0 0 1 48-48h16v-32a88.1 88.1 0 0 1 88-88v16a72.081 72.081 0 0 0 -72 72v40a8 8 0 0 1 -8 8h-24a32.036 32.036 0 0 0 -32 32z"/><path d="m136 160h-8a23.9 23.9 0 0 1 -16-6.126 23.9 23.9 0 0 1 -16 6.126h-8a24.027 24.027 0 0 1 -24-24h16a8.009 8.009 0 0 0 8 8h8a8.009 8.009 0 0 0 8-8 8 8 0 0 1 16 0 8.009 8.009 0 0 0 8 8h8a8.009 8.009 0 0 0 8-8h16a24.027 24.027 0 0 1 -24 24z"/><path d="m116 136h-8a12 12 0 0 1 0-24h8a12 12 0 0 1 0 24z"/></g><path d="m80 112a16 16 0 1 1 16-16 16.019 16.019 0 0 1 -16 16z" fill="#4db6e4"/><path d="m152 112a16 16 0 1 1 16-16 16.019 16.019 0 0 1 -16 16z" fill="#4db6e4"/><path d="m495.513 424.878a81.368 81.368 0 0 0 .487-8.878 80.091 80.091 0 0 0 -80-80h-8a24 24 0 0 1 0-48h32a28 28 0 0 0 0-56h-32a80.133 80.133 0 0 0 -76.585 56.9 225.667 225.667 0 0 0 -19.729-34.366 223.259 223.259 0 0 0 -106.452-82.184 8.03 8.03 0 0 1 -5.234-7.507v-140.843a8 8 0 0 0 -9.94-7.761l-7.46 1.861a53.8 53.8 0 0 0 -36.036 29.9h-61.128a53.8 53.8 0 0 0 -36.036-29.9l-7.46-1.861a8 8 0 0 0 -9.94 7.761v64h16v-53.665a37.883 37.883 0 0 1 24.41 24.2 8 8 0 0 0 7.59 5.465h72a8 8 0 0 0 7.59-5.47 37.886 37.886 0 0 1 24.41-24.196v130.509a24.091 24.091 0 0 0 15.7 22.521 208.309 208.309 0 0 1 136.3 195.467v97.169h-182.987a32.057 32.057 0 0 1 30.987-24h24a8 8 0 0 0 8-8v-40a72.081 72.081 0 0 1 72-72v-16a88.1 88.1 0 0 0 -88 88v32h-16a47.8 47.8 0 0 0 -32 12.261v-148.261h-16v176h-56v-6.111a20.832 20.832 0 0 1 11.578-18.734 8 8 0 0 0 4.422-7.155v-144h-16v139.446a36.709 36.709 0 0 0 -16 30.443v6.111h-32v-6.111a20.832 20.832 0 0 1 11.578-18.734 8 8 0 0 0 4.422-7.155v-344h-16v339.446a36.709 36.709 0 0 0 -16 30.443v14.111a8 8 0 0 0 8 8h392a80.139 80.139 0 0 0 75.446-53.334l-15.086-5.332a64.113 64.113 0 0 1 -60.36 42.666h-64v-24h64a40 40 0 0 0 0-80h-8a64 64 0 0 1 0-128h32a12 12 0 0 1 0 24h-32a40 40 0 0 0 0 80h8a64.072 64.072 0 0 1 64 64 65.03 65.03 0 0 1 -.392 7.122zm-87.513-32.878h8a24 24 0 0 1 0 48h-64v-57.169q0-7.132-.452-14.2a79.749 79.749 0 0 0 56.452 23.369z"/><circle cx="80" cy="96" r="16"/><circle cx="152" cy="96" r="16"/><path d="m88 160h8a23.9 23.9 0 0 0 16-6.126 23.9 23.9 0 0 0 16 6.126h8a24.027 24.027 0 0 0 24-24h-16a8.009 8.009 0 0 1 -8 8h-8a8.009 8.009 0 0 1 -8-8c0-.232-.015-.46-.035-.687a11.992 11.992 0 0 0 -3.965-23.313h-8a11.992 11.992 0 0 0 -3.965 23.313c-.02.227-.035.455-.035.687a8.009 8.009 0 0 1 -8 8h-8a8.009 8.009 0 0 1 -8-8h-16a24.027 24.027 0 0 0 24 24z"/></g></svg>