<svg height="512" viewBox="0 0 512 512" width="512" xmlns="http://www.w3.org/2000/svg"><g id="Filled_outline" data-name="Filled outline"><rect fill="#f96d00" height="224" rx="32" width="464" x="24" y="200"/><path d="m427.508 488h-343.016a16 16 0 0 1 -15.522-12.119l-12.97-51.881h400l-12.97 51.881a16 16 0 0 1 -15.522 12.119z" fill="#d65246"/><rect fill="#ffb431" height="192" rx="8" width="400" x="56" y="232"/><g fill="#f88400"><path d="m88 296h16v16h-16z"/><path d="m80 264h16v16h-16z"/><path d="m360 352h16v16h-16z"/><path d="m192 304h16v16h-16z"/><path d="m408 320h16v16h-16z"/><path d="m400 376h16v16h-16z"/><path d="m200 352h16v16h-16z"/><path d="m80 368h16v16h-16z"/></g><path d="m483.32 100.68a15.987 15.987 0 0 0 -11.32-4.68h-24a48 48 0 0 0 -48 48v72.01a16 16 0 0 1 -16.03 16c-7.99-.01-31.97-.01-31.97-.01v-56a64 64 0 0 0 -64-64h-93.43a31.987 31.987 0 0 1 -27.78-16.12s-22.79-47.88-32.16-62.51c-4.416-6.895-13.79-9.37-22.63-9.37v32h-32l-24 32v40h40v40a80.01 80.01 0 0 0 32 64v120l-8 16v16h48v-144h32l24.32 18.24a51.472 51.472 0 0 0 51.152 45.76h28.528l-32 48h-15.742a19.934 19.934 0 0 0 -14.1 5.839 19.937 19.937 0 0 0 -3.735 23.013l1.577 3.148h56l49.339-67.841a32 32 0 0 0 -1.3-39.308l-10.706-12.851h50.667a47.948 47.948 0 0 0 48-48v-72a16 16 0 0 1 16-16h24a16.009 16.009 0 0 0 11.32-27.32z" fill="#348ed8"/><path d="m80 24a32 32 0 0 1 32 32 0 0 0 0 1 0 0h-32a0 0 0 0 1 0 0v-32a0 0 0 0 1 0 0z" fill="#2d7dbe"/><path d="m160 224h16v48h-16z" fill="#2d7dbe"/><path d="m220.406 267.028a59.192 59.192 0 0 1 -4.4-23.285c.262-20.458 11.333-39.262 28.682-50.106l39.073-24.421 8.48 13.568-39.163 24.478a44.248 44.248 0 0 0 -21.078 37.596 43.214 43.214 0 0 0 3.214 16.114z" fill="#2d7dbe"/><path d="m342.417 290.332a23.844 23.844 0 0 0 -4.521-8.36l-24.042-28.85 12.292-10.244 24.042 28.851a39.774 39.774 0 0 1 7.534 13.939z" fill="#2d7dbe"/><path d="m96 80h16v16h-16z" fill="#4db6e4"/><path d="m32 232a24.027 24.027 0 0 1 24-24h24v-16h-24a40.045 40.045 0 0 0 -40 40v16h16z"/><path d="m480 392a24.039 24.039 0 0 1 -16 22.624v-174.624a16.019 16.019 0 0 0 -16-16v192h-384v-176h24v-16h-24a16.019 16.019 0 0 0 -16 16v174.624a24.039 24.039 0 0 1 -16-22.624v-128h-16v128a40.059 40.059 0 0 0 33.625 39.486l11.584 46.335a23.966 23.966 0 0 0 23.283 18.179h343.016a23.966 23.966 0 0 0 23.283-18.179l11.584-46.335a40.059 40.059 0 0 0 33.625-39.486v-24h-16zm-44.731 81.94a7.99 7.99 0 0 1 -7.761 6.06h-343.016a7.99 7.99 0 0 1 -7.761-6.06l-10.485-41.94h379.508z"/><path d="m456 192v16a24.027 24.027 0 0 1 24 24v120h16v-120a40.045 40.045 0 0 0 -40-40z"/><path d="m88 296h16v16h-16z"/><path d="m80 264h16v16h-16z"/><path d="m360 352h16v16h-16z"/><path d="m192 304h16v16h-16z"/><path d="m408 320h16v16h-16z"/><path d="m400 376h16v16h-16z"/><path d="m200 352h16v16h-16z"/><path d="m80 368h16v16h-16z"/><path d="m56 136h32v32a88.007 88.007 0 0 0 32 67.881v114.23l-7.155 14.311a7.994 7.994 0 0 0 -.845 3.578v16a8 8 0 0 0 8 8h48a8 8 0 0 0 8-8v-136h21.333l19.548 14.661a59.557 59.557 0 0 0 58.591 49.339h13.58l-21.333 32h-11.461a27.937 27.937 0 0 0 -24.987 40.43s5.699 7.57 8.729 7.57h56a8 8 0 0 0 6.47-3.294l49.339-67.842a39.954 39.954 0 0 0 -1.409-48.864h33.6a55.946 55.946 0 0 0 56-56v-72a8.009 8.009 0 0 1 8-8h24a24 24 0 1 0 0-48h-24a56.064 56.064 0 0 0 -56 56v48h-16v16h16v8.01a8 8 0 0 1 -8 8h-.019c-5-.006-16.25-.009-23.98-.01v-48a72.081 72.081 0 0 0 -72-72h-93.431a24.034 24.034 0 0 1 -20.695-11.848c-2.1-4.405-23.259-48.654-32.508-63.1-5.314-8.293-16.018-13.052-29.367-13.052a8 8 0 0 0 -8 8v.022a39.788 39.788 0 0 0 -24-8.022 8 8 0 0 0 -8 8v29.334l-22.4 29.866a8 8 0 0 0 -1.6 4.8v40a8 8 0 0 0 8 8zm32-102.629a24.115 24.115 0 0 1 14.629 14.629h-14.629zm-24 57.3 20-26.671h28a8 8 0 0 0 8-8v-23.09c3.713.944 6.494 2.59 7.893 4.775 8.993 14.041 31.851 61.988 31.949 62.16a40.064 40.064 0 0 0 34.728 20.155h93.43a56.064 56.064 0 0 1 56 56v56a8.009 8.009 0 0 0 8 8.01h32.008a24 24 0 0 0 23.992-24v-72.01a40.045 40.045 0 0 1 40-40h24a8 8 0 0 1 0 16h-24a24.027 24.027 0 0 0 -24 24v72a39.947 39.947 0 0 1 -40 40h-46.919l-10.935-13.122-12.292 10.244 24.046 28.851a23.976 23.976 0 0 1 .973 29.48l-46.947 64.547h-46.892a11.936 11.936 0 0 1 11.224-16h15.742a8 8 0 0 0 6.656-3.562l32-48a8 8 0 0 0 -6.656-12.438h-28.528a43.472 43.472 0 0 1 -23.04-80.336l39.808-24.88-8.48-13.568-39.808 24.884a59.079 59.079 0 0 0 -27.131 40.52l-12.021-9.02a8 8 0 0 0 -4.8-1.6h-24v-16h-16v160h-32v-6.111l7.155-14.311a7.994 7.994 0 0 0 .845-3.578v-120a8 8 0 0 0 -3.2-6.4 72.014 72.014 0 0 1 -28.8-57.6v-40a8 8 0 0 0 -8-8h-32z"/><path d="m96 80h16v16h-16z"/></g></svg>