<svg height="512" viewBox="0 0 512 512" width="512" xmlns="http://www.w3.org/2000/svg"><g id="Filled_outline" data-name="Filled outline"><rect fill="#9fdce4" height="40" rx="20" width="368" x="72" y="48"/><path d="m488 256a231.991 231.991 0 0 1 -129.15 208h-205.7a231.9 231.9 0 0 1 -72.43-360q7.26-8.355 15.28-16h320q8.01 7.635 15.27 16a231.1 231.1 0 0 1 56.73 152z" fill="#9fdce4"/><path d="m488 256a231.991 231.991 0 0 1 -129.15 208h-205.7a232.246 232.246 0 0 1 -113.31-292.41c13.67 4.72 20.96 12.41 44.73 12.41 34.29 0 34.29-16 68.57-16s34.28 16 68.57 16 34.28-16 68.57-16 34.28 16 68.57 16 34.29-16 68.57-16c25.8 0 32.19 9.06 48.37 13.54a231.56 231.56 0 0 1 12.21 74.46z" fill="#4db6e4"/><path d="m192 264s24-48 48-48c7.463 0 12.6 1.547 16.148 3.679a75.308 75.308 0 0 0 31.733 10.28 23.49 23.49 0 0 1 8.119 2.041c16 8 8 32 8 32z" fill="#ff7d19"/><g fill="#79c5e7"><path d="m84 280a12 12 0 1 0 12 12 12.013 12.013 0 0 0 -12-12z"/><path d="m108 240a12 12 0 1 0 12 12 12.013 12.013 0 0 0 -12-12z"/><path d="m88 236a20 20 0 1 0 -20 20 20.023 20.023 0 0 0 20-20z"/></g><path d="m288.512 391.8-17.622-6.16-37.39 6.36 30.5 40s12.822 0 29.094-12.5c10.037-7.7 7.365-23.531-4.582-27.7z" fill="#ff7d19"/><path d="m280 264h-88a88 88 0 0 0 -88 88 86.833 86.833 0 0 0 77.666 48h37.982a98.633 98.633 0 0 0 92.352-64l32-24v-48z" fill="#f76400"/><path d="m424 360a85.4 85.4 0 0 1 -65.607-30.729l-14.393-17.271v-48l14.393-17.271a85.4 85.4 0 0 1 65.607-30.729v20.823a48 48 0 0 1 -23.3 41.16l-16.7 10.017 16.7 10.017a48 48 0 0 1 23.3 41.16z" fill="#ff7d19"/><circle cx="168" cy="328" fill="#415e89" r="16"/><path d="m431.27 104h-350.55q7.26-8.355 15.28-16h320q8.01 7.635 15.27 16z" fill="#91d7df"/><path d="m442.85 379.58 13.336 8.84a239.724 239.724 0 0 0 -23.906-295.263 28 28 0 0 0 -12.28-53.157h-328a28 28 0 0 0 -12.284 53.155c-4.935 5.342-9.642 10.9-14.057 16.643l12.681 9.756a226.333 226.333 0 0 1 20.894-23.554h313.532a225.407 225.407 0 0 1 48.9 71.172c-8.04-3.629-17.73-7.172-34.246-7.172-18.914 0-28.874 4.648-37.662 8.75-8.337 3.89-15.536 7.25-30.908 7.25s-22.571-3.36-30.908-7.25c-8.788-4.1-18.748-8.75-37.662-8.75s-28.884 4.649-37.674 8.751c-8.334 3.89-15.532 7.249-30.9 7.249s-22.571-3.36-30.908-7.25c-8.788-4.1-18.748-8.75-37.662-8.75s-28.874 4.648-37.662 8.75c-8.333 3.89-15.533 7.25-30.904 7.25s-22.568-3.359-30.9-7.25c-1.1-.512-2.213-1.031-3.353-1.546a223.826 223.826 0 0 1 18.834-34.785l-13.341-8.838a240.052 240.052 0 0 0 93.79 347.587 8 8 0 0 0 3.551.832h205.7a8 8 0 0 0 3.551-.832 242.108 242.108 0 0 0 83.94-68.973l-12.682-9.756a226.086 226.086 0 0 1 -76.701 63.561h-201.919a224.23 224.23 0 0 1 -110.557-273.871c.8.367 1.6.741 2.417 1.121 8.79 4.1 18.753 8.75 37.67 8.75s28.884-4.649 37.674-8.751c8.334-3.89 15.532-7.249 30.9-7.249s22.562 3.359 30.9 7.249c8.79 4.1 18.753 8.751 37.674 8.751s28.874-4.648 37.663-8.75c8.336-3.89 15.536-7.25 30.907-7.25s22.562 3.359 30.9 7.249c8.79 4.1 18.753 8.751 37.674 8.751s28.884-4.649 37.674-8.751c8.334-3.89 15.532-7.249 30.9-7.249s22.568 3.359 30.9 7.249a112.85 112.85 0 0 0 11.146 4.7 224.482 224.482 0 0 1 -26.632 191.631zm-350.85-299.58a12 12 0 0 1 0-24h328a12 12 0 0 1 0 24z"/><path d="m84 304a12 12 0 1 0 -12-12 12.013 12.013 0 0 0 12 12z"/><path d="m120 252a12 12 0 1 0 -12 12 12.013 12.013 0 0 0 12-12z"/><path d="m88 236a20 20 0 1 0 -20 20 20.023 20.023 0 0 0 20-20zm-20 4a4 4 0 1 1 4-4 4 4 0 0 1 -4 4z"/><path d="m432 236.823v-20.823a8 8 0 0 0 -8-8 93.154 93.154 0 0 0 -71.753 33.607l12.292 10.244a77.162 77.162 0 0 1 51.461-27.44v12.412a40.2 40.2 0 0 1 -19.42 34.3l-16.7 10.017a8 8 0 0 0 0 13.72l16.7 10.017a40.2 40.2 0 0 1 19.42 34.3v12.412a77.162 77.162 0 0 1 -51.461-27.44l-12.539-15.049v-45.1a8 8 0 0 0 -8-8h-30.267a48.86 48.86 0 0 0 .267-5c0-12.216-5.122-21.5-14.422-26.155a30.737 30.737 0 0 0 -10.934-2.845 66.916 66.916 0 0 1 -28.371-9.171c-5.32-3.206-12.141-4.829-20.273-4.829-14.514 0-29.752 11.979-45.293 35.6l13.367 8.792c11.871-18.042 23.508-28.392 31.926-28.392 5.111 0 9.269.876 12.024 2.534a82.776 82.776 0 0 0 35.093 11.389 15.434 15.434 0 0 1 5.305 1.232c1.5.749 5.477 2.739 5.576 11.525a34.192 34.192 0 0 1 -.386 5.32h-20.668l2.211-4.422-14.31-7.156-5.789 11.578h-12.108l7.708-11.562-13.312-8.876-13.625 20.438h-35.719a96.108 96.108 0 0 0 -96 96 7.994 7.994 0 0 0 .845 3.578 94.316 94.316 0 0 0 84.821 52.422h37.982a107.4 107.4 0 0 0 15.5-1.131l22.452 29.931a8 8 0 0 0 6.4 3.2c1.59 0 16.057-.4 33.967-14.151a23.511 23.511 0 0 0 8.994-22.7 24.036 24.036 0 0 0 -15.811-18.9l-3.1-1.085a106 106 0 0 0 30.585-42.132l24.088-18.066 9.528 11.433a93.154 93.154 0 0 0 71.749 33.601 8 8 0 0 0 8-8v-20.823a56.282 56.282 0 0 0 -27.188-48.019l-5.263-3.158 5.263-3.158a56.282 56.282 0 0 0 27.188-48.019zm-140.836 168.864a7.687 7.687 0 0 1 -2.942 7.472c-8.907 6.84-16.4 9.366-20.629 10.3l-15.4-20.534a106.088 106.088 0 0 0 19.53-8.519l14.151 4.943a7.948 7.948 0 0 1 5.29 6.338zm44.836-97.687-28.8 21.6a8 8 0 0 0 -2.691 3.591 91.051 91.051 0 0 1 -84.861 58.809h-37.982a78.385 78.385 0 0 1 -69.644-41.894 80.094 80.094 0 0 1 79.978-78.106h144z"/><path d="m168 304a24 24 0 1 0 24 24 24.027 24.027 0 0 0 -24-24zm0 32a8 8 0 1 1 8-8 8.009 8.009 0 0 1 -8 8z"/><path d="m193.343 371.562 13.314 8.876 3.585-5.379a77.784 77.784 0 0 0 -3.995-92.059l-12.494 10a61.836 61.836 0 0 1 3.176 73.186z"/><path d="m240 288h16v16h-16z"/><path d="m272 288h16v16h-16z"/><path d="m256 320h16v16h-16z"/></g></svg>