<?xml version="1.0"?>
<svg xmlns="http://www.w3.org/2000/svg" viewBox="0 0 512 512" width="512" height="512"><g id="Filled_outline" data-name="Filled outline"><path d="M488,256a231.809,231.809,0,0,1-7.87,60.11,226.5,226.5,0,0,1-7.2,22.3v.01A231.647,231.647,0,0,1,440,397.33a235.491,235.491,0,0,1-16,18.68,232.187,232.187,0,0,1-97.25,61A227.969,227.969,0,0,1,304.12,483a234.094,234.094,0,0,1-95.77.1,229.128,229.128,0,0,1-22.56-5.92A232.043,232.043,0,0,1,88,416.01a235.491,235.491,0,0,1-16-18.68,231.647,231.647,0,0,1-32.93-58.91v-.01a226.5,226.5,0,0,1-7.2-22.3,233.546,233.546,0,0,1,.36-121.57,227.134,227.134,0,0,1,7.24-21.99A231.362,231.362,0,0,1,72,114.67,235.491,235.491,0,0,1,88,95.99a232.043,232.043,0,0,1,97.79-61.17,229.128,229.128,0,0,1,22.56-5.92,234.136,234.136,0,0,1,95.3,0,229.128,229.128,0,0,1,22.56,5.92A232.043,232.043,0,0,1,424,95.99a235.491,235.491,0,0,1,16,18.68,231.526,231.526,0,0,1,32.62,58.12,226.577,226.577,0,0,1,7.23,22.06A231.847,231.847,0,0,1,488,256Z" style="fill:#d65246"/><path d="M425.706,86.294a240.1,240.1,0,0,0-293.85-35.732l8.288,13.687a222.645,222.645,0,0,1,55.578-24.02L248,68.749v86.5l-80,43.636L88,155.251V107.8a226.959,226.959,0,0,1,28.969-27.438l-9.938-12.539A240.014,240.014,0,0,0,396.7,450.456l-9.39-12.956a222.462,222.462,0,0,1-70.962,34.306L264,443.251v-86.5l80-43.636,80,43.636v47.4a224.688,224.688,0,0,1-21.244,21.081l10.488,12.083A240.006,240.006,0,0,0,425.706,86.294ZM470,322.154l-38,20.733L378.667,313.8,352,299.251v-86.5L378.667,198.2,432,169.113l38.135,20.807A225.036,225.036,0,0,1,470,322.154ZM41.892,189.905,80,169.113,133.333,198.2,160,212.749v86.5L133.333,313.8,80,342.887,41.865,322.08a226,226,0,0,1,.027-132.175ZM440,128.164A221.88,221.88,0,0,1,461.719,167.1L440,155.251ZM336,299.251l-80,43.636-80-43.636v-86.5l80-43.636,80,43.636Zm-264,57.5v27.087A221.88,221.88,0,0,1,50.281,344.9Zm352-248.9v47.4l-80,43.636-80-43.636v-86.5l52.358-28.563a222.735,222.735,0,0,1,98.034,57.422Q419.381,102.6,424,107.848ZM219.515,34.983a225.687,225.687,0,0,1,73.011-.022L256,54.887ZM72,155.251,50.29,167.1A221.946,221.946,0,0,1,72,128.127Zm16,248.9v-47.4l80-43.636,80,43.636v86.5l-52.358,28.563a222.735,222.735,0,0,1-98.034-57.422Q92.619,409.4,88,404.152Zm204.533,72.891a226.962,226.962,0,0,1-73.059,0L256,457.113ZM440,356.749l21.549-11.757A224.013,224.013,0,0,1,440,383.719Z"/><path d="M197.764,56.265c-6.483,1.887-12.948,4.119-19.215,6.636l5.961,14.848c5.782-2.322,11.745-4.381,17.726-6.122Z"/><path d="M108.463,133.123a194.092,194.092,0,0,1,63.061-49.591l-7.048-14.363a210.2,210.2,0,0,0-68.3,53.708Z"/><path d="M71.678,202.06l-15.357-4.487c-1.886,6.453-3.474,13.081-4.721,19.7l15.724,2.962C68.474,214.128,69.939,208.013,71.678,202.06Z"/><path d="M56.265,314.236l15.362-4.472A192.283,192.283,0,0,1,64,256a195.2,195.2,0,0,1,1.212-21.706l-15.9-1.787A211.116,211.116,0,0,0,48,256,208.283,208.283,0,0,0,56.265,314.236Z"/><path d="M110.078,380.788l-12.156,10.4a208.973,208.973,0,0,0,83.2,58.919l5.762-14.926A192.911,192.911,0,0,1,110.078,380.788Z"/></g></svg>
