<?xml version="1.0"?>
<svg xmlns="http://www.w3.org/2000/svg" viewBox="0 0 512 512" width="512" height="512"><g id="Filled_outline" data-name="Filled outline"><polygon points="437.46 83.92 424 88 440 138.67 488 112 437.46 83.92" style="fill:#348ed8"/><path d="M280,104v72L96,336,24,400H320A120,120,0,0,0,440,280V104a80,80,0,0,0-80-80h0A80,80,0,0,0,280,104Z" style="fill:#60d0df"/><circle cx="380" cy="100" r="20" style="fill:#2b78b7"/><path d="M440,256q0,4.05-.39,8A79.915,79.915,0,0,1,424,304a80.783,80.783,0,0,1-7.43,8.57A79.789,79.789,0,0,1,360,336H96l36.8-32,18.4-16,27.6-24,18.4-16L280,176h80a80.027,80.027,0,0,1,79.61,72Q440,251.945,440,256Z" style="fill:#348ed8"/><path d="M491.885,105.007,444.238,78.534A88,88,0,0,0,272,104v48h16V104a72,72,0,0,1,144,0V205.462A87.958,87.958,0,0,0,360,168H280a8,8,0,0,0-5.25,1.963L18.685,394.021A8,8,0,0,0,24,408H210.849l32.727,72H208v16H360V480H325.151l-32.727-72H320a127.115,127.115,0,0,0,51.2-10.654L364.8,382.684A111.207,111.207,0,0,1,320,392H45.042l54-48H360a87.835,87.835,0,0,0,67.118-31.156,111.6,111.6,0,0,1-47.39,61.919l8.544,13.528A127.458,127.458,0,0,0,448,280V143.377l43.886-24.384a8,8,0,0,0,0-13.986ZM307.576,480H261.151l-32.727-72h46.425ZM306.8,267.914,283.347,288H235.941l9.264-7.935L234.8,267.914,211.347,288H163.392l27.6-24H431.545a71.427,71.427,0,0,1-7.073,24H307.941l9.264-7.935ZM264.669,304l-28.017,24h-47.4l28.017-24Zm18.323-120H360a72.1,72.1,0,0,1,71.545,64H209.392Zm-138,120h47.677l-28.017,24h-47.26ZM360,328H261.247l28.017-24H413.608A71.831,71.831,0,0,1,360,328Zm88-202.927V104c0-1.732-.056-3.451-.155-5.159L471.528,112Z"/><path d="M380,128a28,28,0,1,0-28-28A28.032,28.032,0,0,0,380,128Zm0-40a12,12,0,1,1-12,12A12.013,12.013,0,0,1,380,88Z"/></g></svg>
