<svg height="512" viewBox="0 0 512 512" width="512" xmlns="http://www.w3.org/2000/svg"><g id="Filled_outline" data-name="Filled outline"><path d="m24 120h256v328h-256z" fill="#ffb431"/><ellipse cx="152" cy="120" fill="#dfdfdd" rx="128" ry="96"/><path d="m88 304v80l24-24 24 24v-80z" fill="#2d7dbe"/><path d="m149.142 272.615c6.6-13.877-7.88-28.354-21.757-21.757-5.148-14.477-25.622-14.477-30.77 0-13.877-6.6-28.354 7.88-21.757 21.757-14.477 5.148-14.477 25.622 0 30.77-6.6 13.877 7.88 28.354 21.757 21.757 5.148 14.477 25.622 14.477 30.77 0 13.877 6.6 28.354-7.88 21.757-21.757 14.477-5.148 14.477-25.622 0-30.77z" fill="#348ed8"/><rect fill="#dfdfdd" height="264" rx="48" width="288" x="200" y="224"/><path d="m488 272v126.46a25.54 25.54 0 0 1 -47.44 13.14l-8.33-13.88a28.259 28.259 0 0 0 -24.23-13.72h-160a48 48 0 0 1 -48-48v-64a48 48 0 0 1 48-48h192a48 48 0 0 1 48 48z" fill="#d26699"/><ellipse cx="269.27" cy="283.934" fill="#8851a0" rx="40" ry="24" transform="matrix(.891 -.455 .455 .891 -99.655 153.476)"/><path d="m32 169.158a111.957 111.957 0 0 0 24.69 25.124c25.552 19.164 59.4 29.718 95.31 29.718s69.758-10.554 95.31-29.718a111.957 111.957 0 0 0 24.69-25.124v30.842h16v-80c0-28.222-14.451-54.6-40.69-74.282-25.552-19.164-59.4-29.718-95.31-29.718-30.878 0-59.967 7.676-84.122 22.2l8.244 13.713c21.357-12.842 48.304-19.913 75.878-19.913 66.168 0 120 39.477 120 88s-53.832 88-120 88-120-39.477-120-88c0-21.251 10.559-41.8 29.731-57.869l-10.277-12.263c-22.862 19.158-35.454 44.065-35.454 70.132v328a8 8 0 0 0 8 8h152v-16h-144z"/><path d="m215.444 158.6c-16.832 11.22-39.363 17.4-63.444 17.4-31.914 0-61.463-11.205-77.114-29.243l-12.086 10.487c18.886 21.763 52.231 34.756 89.2 34.756 27.2 0 52.889-7.134 72.32-20.089 20.429-13.619 31.68-32.055 31.68-51.911s-11.251-38.292-31.68-51.911c-19.431-12.955-45.12-20.089-72.32-20.089-21.441 0-42 4.425-59.459 12.8l6.918 14.427c15.312-7.346 33.48-11.227 52.541-11.227 24.081 0 46.612 6.18 63.444 17.4 15.835 10.558 24.556 24.266 24.556 38.6s-8.721 28.042-24.556 38.6z"/><path d="m67.577 93.267a20.945 20.945 0 0 0 0 37.466l10.534 5.267a76.162 76.162 0 0 0 33.889 8 32 32 0 0 0 0-64 76.162 76.162 0 0 0 -33.889 8zm60.423 18.733a16.019 16.019 0 0 1 -16 16 59.514 59.514 0 0 1 -8-.565v-30.87a59.514 59.514 0 0 1 8-.565 16.019 16.019 0 0 1 16 16zm-40-10.957v21.914c-.92-.4-13.267-6.535-13.267-6.535a4.944 4.944 0 0 1 0-8.844s12.347-6.132 13.267-6.535z"/><path d="m168 288a24.049 24.049 0 0 0 -9.44-19.286 24.42 24.42 0 0 0 -27.275-27.274 24.418 24.418 0 0 0 -38.57 0 24.418 24.418 0 0 0 -27.275 27.274 24.421 24.421 0 0 0 0 38.572 24.054 24.054 0 0 0 6.96 20.314 24.628 24.628 0 0 0 7.6 5.186v51.214a8 8 0 0 0 13.657 5.657l18.343-18.344 18.343 18.344a8 8 0 0 0 13.657-5.657v-51.217a24.608 24.608 0 0 0 7.6-5.185 24.054 24.054 0 0 0 6.962-20.312 24.049 24.049 0 0 0 9.438-19.286zm-50.343 66.343a8 8 0 0 0 -11.314 0l-10.343 10.344v-26.627a24.517 24.517 0 0 0 32 0v26.628zm28.8-58.5a8 8 0 0 0 -4.545 10.972 8.329 8.329 0 0 1 -11.1 11.1 8 8 0 0 0 -10.971 4.545 8.33 8.33 0 0 1 -15.7 0 8 8 0 0 0 -10.971-4.545 8.329 8.329 0 0 1 -11.1-11.1 8 8 0 0 0 -4.545-10.972 8.328 8.328 0 0 1 0-15.694 8 8 0 0 0 4.545-10.972 8.329 8.329 0 0 1 11.1-11.1 8 8 0 0 0 10.971-4.545 8.33 8.33 0 0 1 15.7 0 8 8 0 0 0 10.971 4.544 8.329 8.329 0 0 1 11.1 11.1 8 8 0 0 0 4.545 10.972 8.328 8.328 0 0 1 0 15.694z"/><path d="m48 408h128v16h-128z"/><path d="m440 216h-192a56.063 56.063 0 0 0 -56 56v168a56.063 56.063 0 0 0 56 56h192a56.063 56.063 0 0 0 56-56h-16a40.045 40.045 0 0 1 -40 40h-192a40.045 40.045 0 0 1 -40-40v-64.862a55.82 55.82 0 0 0 40 16.862h160a20.363 20.363 0 0 1 17.372 9.835l8.328 13.881a33.54 33.54 0 0 0 62.3-17.256v-126.46a56.063 56.063 0 0 0 -56-56zm40 128a32.08 32.08 0 0 1 -25.592 31.359l3.184 15.681a47.653 47.653 0 0 0 22.408-11.308v18.728a17.539 17.539 0 0 1 -32.579 9.025l-8.329-13.885a36.441 36.441 0 0 0 -31.092-17.6h-160a40.045 40.045 0 0 1 -40-40v-64a40.045 40.045 0 0 1 40-40h192a40.045 40.045 0 0 1 40 40z"/><path d="m440 248h-112v16h112a8.009 8.009 0 0 1 8 8v64a8.009 8.009 0 0 1 -8 8h-192a8.009 8.009 0 0 1 -8-8v-8h-16v8a24.027 24.027 0 0 0 24 24h192a24.027 24.027 0 0 0 24-24v-64a24.027 24.027 0 0 0 -24-24z"/><path d="m251.247 319.89c11.239.77 22.621-2.376 32.572-7.455 23.973-12.238 36.362-34.343 28.2-50.326s-33.33-18.914-57.3-6.677-36.36 34.344-28.2 50.326c4.181 8.191 13.194 13.342 24.728 14.132zm10.753-50.207a49.826 49.826 0 0 1 22.068-5.8c6.8 0 11.934 2.027 13.708 5.5 3.434 6.727-4.914 20.473-21.227 28.8-8.123 4.147-16.951 6.232-24.2 5.743-5.79-.4-10.009-2.382-11.572-5.445-3.442-6.725 4.906-20.471 21.223-28.798z"/><path d="m224 408h16v40h-16z"/></g></svg>