<svg height="512" viewBox="0 0 512 512" width="512" xmlns="http://www.w3.org/2000/svg"><g id="Filled_outline" data-name="Filled outline"><path d="m488 392a64 64 0 0 0 -64-64h-336a64 64 0 0 0 -64 64v32a64 64 0 0 0 64 64h336a64 64 0 0 0 64-64z" fill="#d65246"/><rect fill="#348ed8" height="128" rx="64" width="464" x="24" y="328"/><path d="m192 56h128v344h-128z" fill="#d65246"/><path d="m192 56h128v56h-128z" fill="#d65246"/><rect fill="#348ed8" height="64" rx="32" width="128" x="192" y="24"/><path d="m424 320h-96v-45.835a16 16 0 0 1 8 13.835h16a32.056 32.056 0 0 0 -24-30.987v-33.013h-16v1.361l-112 21v-15.722l120.743-22.639h7.257v-152a40.045 40.045 0 0 0 -40-40h-64v16h64a24 24 0 0 1 0 48h-64a24 24 0 0 1 -11.994-44.794l-8.012-13.85a40.145 40.145 0 0 0 -19.994 34.644v45.835a16 16 0 0 1 -8-13.835h-16a32.056 32.056 0 0 0 24 30.987v281.013a8 8 0 0 0 8 8h128a8 8 0 0 0 8-8v-64h96a56 56 0 1 1 0 112h-336a56 56 0 1 1 0-112h80v-16h-80a71.982 71.982 0 0 0 -72 72v32a71.982 71.982 0 0 0 72 72h336a72.081 72.081 0 0 0 72-72v-32a72.081 72.081 0 0 0 -72-72zm-224-25.361 112-21v15.722l-112 21zm0 32 112-21v15.722l-112 21zm0 32 112-21v22.361h-112zm112-117v15.722l-112 21v-15.722zm-112-107 112-21v15.722l-112 21zm0 32 112-21v15.722l-112 21zm0 32 112-21v15.722l-112 21zm24-102.639h64a39.788 39.788 0 0 0 24-8.022v9.383l-112 21v-30.383a39.788 39.788 0 0 0 24 8.022zm88 296h-112v-16h112zm112 88h-336a56.027 56.027 0 0 1 -53.725-40.136 71.828 71.828 0 0 0 53.725 24.136h336a71.534 71.534 0 0 0 50.917-21.083c.945-.945 1.853-1.916 2.738-2.9a56.093 56.093 0 0 1 -53.655 39.983z"/></g></svg>