<svg height="512" viewBox="0 0 512 512" width="512" xmlns="http://www.w3.org/2000/svg"><g id="Filled_outline" data-name="Filled outline"><circle cx="416" cy="344" fill="none" r="16"/><path d="m88 296a64 64 0 0 1 -64-64v96a64 64 0 0 0 64 64h208v-96z" fill="#c14135"/><path d="m424 296h-312a48 48 0 0 0 0 96h312a64 64 0 0 0 64-64v-96a64 64 0 0 1 -64 64zm-8 64a16 16 0 1 1 16-16 16 16 0 0 1 -16 16z" fill="#d65246"/><circle cx="208" cy="344" fill="#b93f33" r="16"/><path d="m216 408v-16h64a48 48 0 0 0 48-48 48 48 0 0 0 -48-48h-64v-16a16 16 0 0 1 16-16h48a80 80 0 0 1 80 80 80 80 0 0 1 -80 80h-48a16 16 0 0 1 -16-16z" fill="#fbab1f"/><rect fill="#ffc261" height="32" rx="16" width="96" x="264" y="328"/><path d="m424 88h-336a64 64 0 0 0 -64 64v96a64 64 0 0 1 64-64h336a64 64 0 0 1 64 64v-96a64 64 0 0 0 -64-64zm-328 64a16 16 0 1 1 16-16 16 16 0 0 1 -16 16zm80 0a16 16 0 1 1 16-16 16 16 0 0 1 -16 16zm80 0a16 16 0 1 1 16-16 16 16 0 0 1 -16 16zm80 0a16 16 0 1 1 16-16 16 16 0 0 1 -16 16zm80 0a16 16 0 1 1 16-16 16 16 0 0 1 -16 16z" fill="#91563a"/><path d="m128 272h32v144h-32z" fill="#91563a"/><path d="m392 344a24 24 0 1 0 24-24 24.027 24.027 0 0 0 -24 24zm32 0a8 8 0 1 1 -8-8 8.009 8.009 0 0 1 8 8z"/><path d="m424 80h-336a71.694 71.694 0 0 0 -56.207 27l12.484 10a55.773 55.773 0 0 1 43.723-21h336a56.063 56.063 0 0 1 56 56v50.815a71.883 71.883 0 0 0 -56-26.815h-336a71.883 71.883 0 0 0 -56 26.815v-50.815a55.7 55.7 0 0 1 4.066-21l-14.83-6a71.632 71.632 0 0 0 -5.236 27v176a72.081 72.081 0 0 0 72 72h32v16a8 8 0 0 0 8 8h32a8 8 0 0 0 8-8v-16h40v8a24.028 24.028 0 0 0 24 24h48a87.467 87.467 0 0 0 62.237-25.784c1.979-1.985 3.857-4.07 5.632-6.216h76.131a71.927 71.927 0 0 0 47.63-18l-10.588-12a55.934 55.934 0 0 1 -37.042 14h-65.594a88.011 88.011 0 0 0 -78.406-128h-48a24.028 24.028 0 0 0 -24 24v8h-40v-16a8 8 0 0 0 -8-8h-32a8 8 0 0 0 -8 8v16h-32a56.066 56.066 0 0 1 -55.423-47.97 56.079 56.079 0 0 1 55.423-48.03h336a56.078 56.078 0 0 1 55.423 48.03 56.066 56.066 0 0 1 -55.423 47.97h-48v16h48a72.05 72.05 0 0 0 56-26.779v50.779a56.039 56.039 0 0 1 -7 27.129l14 7.764a72.081 72.081 0 0 0 9-34.893v-176a72.081 72.081 0 0 0 -72-72zm-86.383 307.19a74.207 74.207 0 0 1 -6.7 7.721 71.564 71.564 0 0 1 -50.917 21.089h-48a8.009 8.009 0 0 1 -8-8v-8h56a56.114 56.114 0 0 0 50.6-32h13.4a24.026 24.026 0 0 0 4.031-.345 71.646 71.646 0 0 1 -10.414 19.535zm6.383-51.19a8 8 0 0 1 0 16h-64a8 8 0 0 1 0-16zm-120-56a8.009 8.009 0 0 1 8-8h48a72.084 72.084 0 0 1 68.03 48.345 24.005 24.005 0 0 0 -4.03-.345h-13.406a56.482 56.482 0 0 0 -10.994-15.594 55.605 55.605 0 0 0 -39.6-16.406h-56zm56 24a39.774 39.774 0 0 1 31.978 16h-31.978a24 24 0 0 0 0 48h32a40.089 40.089 0 0 1 -32 16h-112v-80zm-144-24h16v128h-16zm-16 24v80h-8a40 40 0 0 1 0-80zm-45.743-1.33a55.933 55.933 0 0 0 -4.27 78.341 56.087 56.087 0 0 1 -37.987-53.011v-50.779a72.22 72.22 0 0 0 42.257 25.449z"/><path d="m208 368a24 24 0 1 0 -24-24 24.027 24.027 0 0 0 24 24zm0-32a8 8 0 1 1 -8 8 8.009 8.009 0 0 1 8-8z"/><path d="m280 136a24 24 0 1 0 -24 24 24.027 24.027 0 0 0 24-24zm-32 0a8 8 0 1 1 8 8 8.009 8.009 0 0 1 -8-8z"/><path d="m200 136a24 24 0 1 0 -24 24 24.027 24.027 0 0 0 24-24zm-32 0a8 8 0 1 1 8 8 8.009 8.009 0 0 1 -8-8z"/><path d="m120 136a24 24 0 1 0 -24 24 24.027 24.027 0 0 0 24-24zm-32 0a8 8 0 1 1 8 8 8.009 8.009 0 0 1 -8-8z"/><path d="m440 136a24 24 0 1 0 -24 24 24.027 24.027 0 0 0 24-24zm-32 0a8 8 0 1 1 8 8 8.009 8.009 0 0 1 -8-8z"/><path d="m360 136a24 24 0 1 0 -24 24 24.027 24.027 0 0 0 24-24zm-32 0a8 8 0 1 1 8 8 8.009 8.009 0 0 1 -8-8z"/></g></svg>