<svg height="512" viewBox="0 0 512 512" width="512" xmlns="http://www.w3.org/2000/svg"><g id="Filled_outline" data-name="Filled outline"><path d="m304 136h-16v-32h-64v32h-16v-32a16.019 16.019 0 0 1 16-16h64a16.019 16.019 0 0 1 16 16z" fill="#2f9ccb"/><path d="m496 200v-16h-8v-32a24.027 24.027 0 0 0 -24-24h-272v16h56v40h-24v16h24v48h-24v16h24v48h-24v16h24v40h-32v16h264a8 8 0 0 0 8-8v-48h8v-16h-8v-48h8v-16h-8v-48zm-24-48v32h-16v-40h8a8.009 8.009 0 0 1 8 8zm-128 96h-16v-48h16zm16-48h16v48h-16zm-16 64v48h-16v-48zm16 0h16v48h-16zm32 0h16v48h-16zm0-16v-48h16v48zm0-64v-40h16v40zm-16 0h-16v-40h16zm-32 0h-16v-40h16zm-32 0h-16v-40h16zm0 16v48h-16v-48zm0 64v48h-16v-48zm0 64v40h-16v-40zm16 0h16v40h-16zm32 0h16v40h-16zm32 0h16v40h-16zm32 0h16v40h-16zm0-16v-48h16v48zm0-64v-48h16v48zm0-64v-40h16v40zm-160-40h16v40h-16zm0 56h16v48h-16zm0 64h16v48h-16zm0 64h16v40h-16zm208 40h-16v-40h16zm0-56h-16v-48h16zm0-64h-16v-48h16z" fill="#2f9ccb"/><path d="m208 128h-160a24.027 24.027 0 0 0 -24 24v32h-8v16h8v48h-8v16h8v48h-8v16h8v48a8 8 0 0 0 8 8h192a8 8 0 0 0 8-8v-224a24.027 24.027 0 0 0 -24-24zm-8 16h8a8.009 8.009 0 0 1 8 8v32h-16zm-64 0h16v40h-16zm-32 0h16v40h-16zm-32 0h16v40h-16zm-16 224h-16v-40h16zm0-56h-16v-48h16zm0-64h-16v-48h16zm0-64h-16v-32a8.009 8.009 0 0 1 8-8h8zm32 184h-16v-40h16zm32 0h-16v-40h16zm32 0h-16v-40h16zm32 0h-16v-40h16zm0-56h-112v-112h112zm0-128h-16v-40h16zm32 184h-16v-40h16zm0-56h-16v-48h16zm-16-64v-48h16v48z" fill="#4db6e4"/><path d="m24 368h472v40h-472z" fill="#2f486e"/><path d="m16 368h208v40h-208z" fill="#415e89"/><path d="m496 200v-16h-8v-32a24.027 24.027 0 0 0 -24-24h-160v-24a16.019 16.019 0 0 0 -16-16h-64a16.019 16.019 0 0 0 -16 16v24h-160a24.117 24.117 0 0 0 -22.476 15.571l14.981 5.62a8.041 8.041 0 0 1 7.495-5.191h8v40h-16v-22h-16v22h-8v16h8v48h-8v16h8v48h-8v16h8v40a8 8 0 0 0 -8 8v32a8 8 0 0 0 8 8h408v-16h-200v-16h248v16h-32v16h40a8 8 0 0 0 8-8v-32a8 8 0 0 0 -8-8v-40h8v-16h-8v-16h-16v16h-16v-48h16v18h16v-18h8v-16h-8v-48zm-24-48v32h-16v-40h8a8.009 8.009 0 0 1 8 8zm-64 216h-16v-40h16zm16-40h16v40h-16zm-352-128h112v112h-112zm112-16h-16v-40h16zm-32 0h-16v-40h16zm-32 0h-16v-40h16zm256 0h-16v-40h16zm16-40h16v40h-16zm-192 120h16v48h-16zm32 0h16v48h-16zm32 0h16v48h-16zm48-16h-16v-48h16zm16-48h16v48h-16zm-48 48h-16v-48h16zm16 16h16v48h-16zm32 0h16v48h-16zm32 0h16v48h-16zm0-16v-48h16v48zm-16-64h-16v-40h16zm-32 0h-16v-40h16zm-32 0h-16v-40h16zm-32 0h-16v-32a23.885 23.885 0 0 0 -1.376-8h17.376zm0 16v48h-16v-48zm-32 48h-16v-48h16zm-128 80v40h-16v-40zm16 0h16v40h-16zm32 0h16v40h-16zm32 0h16v40h-16zm32 0h16v40h-16zm32 0h16v40h-16zm32 0h16v40h-16zm32 0h16v40h-16zm32 0h16v40h-16zm32 0h16v40h-16zm32-16v-48h16v48zm0-64v-48h16v48zm32-48h16v48h-16zm0-16v-40h16v40zm-200-80h64v24h-64zm-8 48v32h-16v-40h8a8.009 8.009 0 0 1 8 8zm-144-8h16v40h-16zm-32 56h16v48h-16zm0 64h16v48h-16zm0 64h16v40h-16zm176 72h-184v-16h184zm256-72v40h-16v-40zm-32-16h-16v-48h16zm32-64h-16v-48h16z"/></g></svg>