<svg height="512" viewBox="0 0 512 512" width="512" xmlns="http://www.w3.org/2000/svg"><g id="Filled_outline" data-name="Filled outline"><path d="m488 328-32 144h-400l-32-144v-240a48 48 0 0 1 48-48h368a48 48 0 0 1 48 48z" fill="#ea7206"/><g fill="#f88400"><path d="m232 128h48a24 24 0 0 1 24 24v248a0 0 0 0 1 0 0h-96a0 0 0 0 1 0 0v-248a24 24 0 0 1 24-24z"/><path d="m328 128h48a24 24 0 0 1 24 24v248a0 0 0 0 1 0 0h-96a0 0 0 0 1 0 0v-248a24 24 0 0 1 24-24z"/><path d="m136 128h48a24 24 0 0 1 24 24v248a0 0 0 0 1 0 0h-96a0 0 0 0 1 0 0v-248a24 24 0 0 1 24-24z"/></g><path d="m456 472h-400l-32-144h46.865a45.971 45.971 0 0 1 43.613 31.435l3.044 9.13a45.971 45.971 0 0 0 43.613 31.435h193.987a45.973 45.973 0 0 0 44.878-36 45.973 45.973 0 0 1 44.878-36h43.122z" fill="#7a432a"/><path d="m440 32h-368a56.064 56.064 0 0 0 -56 56h16a40.045 40.045 0 0 1 40-40h368a40.045 40.045 0 0 1 40 40v232h-35.122a53.772 53.772 0 0 0 -36.878 14.451v-182.451a32.036 32.036 0 0 0 -32-32h-48a31.923 31.923 0 0 0 -24 10.868 31.923 31.923 0 0 0 -24-10.868h-48a31.923 31.923 0 0 0 -24 10.868 31.923 31.923 0 0 0 -24-10.868h-48a32.036 32.036 0 0 0 -32 32v179.351a53.891 53.891 0 0 0 -33.135-11.351h-38.865v-206.383h-16v214.383a8.042 8.042 0 0 0 .187 1.735l32 144a8 8 0 0 0 7.813 6.265h400a8 8 0 0 0 7.81-6.265l17.255-77.649-15.619-3.47-15.863 71.384h-387.166l-28.444-128h36.892a37.925 37.925 0 0 1 36.024 25.965l3.043 9.13a53.9 53.9 0 0 0 51.2 36.9h193.99a53.653 53.653 0 0 0 52.688-42.265 37.746 37.746 0 0 1 37.068-29.73h33.149l-8.17 36.764 15.62 3.47 10.333-46.5a8.042 8.042 0 0 0 .19-1.734v-240a56.064 56.064 0 0 0 -56-56zm-208 104h48a16.019 16.019 0 0 1 16 16v240h-80v-240a16.019 16.019 0 0 1 16-16zm-106.889 230.035-3.043-9.13a54.115 54.115 0 0 0 -2.068-5.248v-199.657a16.019 16.019 0 0 1 16-16h48a16.019 16.019 0 0 1 16 16v240h-38.865a37.925 37.925 0 0 1 -36.024-25.965zm230.011 25.965h-43.122v-240a16.019 16.019 0 0 1 16-16h48a16.019 16.019 0 0 1 16 16v211.043a37.733 37.733 0 0 1 -36.878 28.957z"/><path d="m100.457 104.683 4.115 10.288 14.856-5.942-4.116-10.289a55 55 0 0 0 -51.312-34.74v16a39.077 39.077 0 0 1 36.457 24.683z"/><path d="m411.543 104.683a39.077 39.077 0 0 1 36.457-24.683v-16a55 55 0 0 0 -51.312 34.74l-4.116 10.289 14.856 5.942z"/><path d="m136 160h16v16h-16z"/><path d="m136 192h16v80h-16z"/></g></svg>