<?xml version="1.0"?>
<svg xmlns="http://www.w3.org/2000/svg" viewBox="0 0 512 512" width="512" height="512"><g id="Filled_outline" data-name="Filled outline"><path d="M24,256h0a31.662,31.662,0,0,1,12.881-25.491L45.714,224l19.838-72.451A32,32,0,0,1,96.416,128H415.584a32,32,0,0,1,30.864,23.549L466.286,224l8.833,6.509A31.662,31.662,0,0,1,488,256H24Z" style="fill:#4db6e4"/><path d="M488,256h0a31.662,31.662,0,0,1-12.881,25.491L466.286,288l-19.838,72.451A32,32,0,0,1,415.584,384H96.416a32,32,0,0,1-30.864-23.549L45.714,288l-8.833-6.509A31.662,31.662,0,0,1,24,256H488Z" style="fill:#348ed8"/><path d="M280,256a31.64,31.64,0,0,1-12.88,25.49L258.29,288,240,354.79l-1.55,5.66a32,32,0,0,1-29.52,23.52q-.675.03-1.35.03H96.42q-.675,0-1.35-.03a32,32,0,0,1-29.52-23.52L64,354.79,45.71,288l-8.83-6.51a31.657,31.657,0,0,1,0-50.98L45.71,224,64,157.21l1.55-5.66a32,32,0,0,1,29.52-23.52q.675-.03,1.35-.03H207.58q.675,0,1.35.03a32,32,0,0,1,29.52,23.52l1.55,5.66L258.29,224l8.83,6.51A31.664,31.664,0,0,1,280,256Z" style="fill:#2f486e"/><path d="M192,88v40h32V96h64v32h32V88a24,24,0,0,0-24-24H216A24,24,0,0,0,192,88Z" style="fill:#34507b"/><path d="M479.864,224.068l-6.6-4.86-19.1-69.771A40.094,40.094,0,0,0,415.584,120H328V88a32.036,32.036,0,0,0-32-32H216a32.036,32.036,0,0,0-32,32v16h16V88a16.019,16.019,0,0,1,16-16h80a16.019,16.019,0,0,1,16,16v32H296V96a8,8,0,0,0-8-8H224a8,8,0,0,0-8,8v24H96.416a40.093,40.093,0,0,0-31.978,16H64v.6a39.728,39.728,0,0,0-6.164,12.84l-19.1,69.771-6.6,4.86a39.664,39.664,0,0,0,0,63.864l6.6,4.86,19.1,69.771A39.728,39.728,0,0,0,64,375.4v.6h.438a40.093,40.093,0,0,0,31.978,16H415.584a40.094,40.094,0,0,0,38.58-29.437l4.5-16.451-15.432-4.224-4.5,16.45A24.056,24.056,0,0,1,415.584,376H240v-.6a39.728,39.728,0,0,0,6.164-12.84l19.1-69.771,6.6-4.86A39.823,39.823,0,0,0,287.16,264H478.6a23.734,23.734,0,0,1-8.223,11.051L463.657,280H296v16H455.8l-7.517,27.452,15.432,4.226,9.552-34.886,6.6-4.86a39.664,39.664,0,0,0,0-63.864ZM232,104h48v16H232ZM184,376H160V328h24Zm0-192H160V136h24Zm40,64H200V200h24Zm-40,0H160V200h24Zm-40-64H120V136h24Zm0,16v48H120V200Zm-40,48H80V200h24ZM80,264h24v48H80Zm40,0h24v48H120Zm24,64v48H120V328Zm16-16V264h24v48Zm40-48h24v48H200Zm24-121.468V184H200V136h7.584A23.994,23.994,0,0,1,224,142.532ZM104,136v48H80V142.532A23.994,23.994,0,0,1,96.416,136ZM53.431,285.887a8,8,0,0,0-2.971-4.327l-8.833-6.509a23.664,23.664,0,0,1,0-38.1l8.834-6.509a8,8,0,0,0,2.971-4.327L64,187.51V324.49ZM80,369.468V328h24v48H96.416A23.994,23.994,0,0,1,80,369.468ZM200,376V328h24v41.468A23.994,23.994,0,0,1,207.584,376Zm62.374-100.949-8.834,6.509a8,8,0,0,0-2.971,4.327L240,324.49V187.51l10.569,38.6a8,8,0,0,0,2.971,4.327l8.833,6.509a23.664,23.664,0,0,1,0,38.1Zm9.49-50.983-6.6-4.86-19.1-69.771A39.728,39.728,0,0,0,240,136.6V136H415.584a24.056,24.056,0,0,1,23.148,17.662L455.8,216H328v16H463.656l6.717,4.949A23.728,23.728,0,0,1,478.593,248H287.16A39.825,39.825,0,0,0,271.864,224.068Z"/><rect x="296" y="216" width="16" height="16"/><rect x="280" y="150.702" width="16.001" height="50.596" transform="translate(-40.877 100.105) rotate(-18.435)"/><rect x="320" y="150.702" width="16.001" height="50.596" transform="translate(-38.824 112.754) rotate(-18.435)"/><rect x="360" y="150.702" width="16.001" height="50.596" transform="translate(-36.772 125.404) rotate(-18.435)"/><rect x="400" y="150.702" width="16.001" height="50.596" transform="translate(-34.719 138.053) rotate(-18.435)"/><rect x="262.702" y="328" width="50.596" height="16.001" transform="translate(-121.828 502.976) rotate(-71.566)"/><rect x="302.702" y="328" width="50.596" height="16.001" transform="translate(-94.48 540.916) rotate(-71.565)"/><rect x="342.702" y="328" width="50.596" height="16.001" transform="translate(-67.129 578.863) rotate(-71.565)"/><rect x="382.702" y="328" width="50.596" height="16.001" transform="translate(-39.779 616.81) rotate(-71.565)"/></g></svg>
