<svg height="512" viewBox="0 0 512 512" width="512" xmlns="http://www.w3.org/2000/svg"><g id="Filled_outline" data-name="Filled outline"><path d="m488 376c-109.176 64-354.824 64-464 0l32-168h400z" fill="#d65246"/><path d="m456 208c0 11.02-15.46 21.17-41.46 29.27-36.57 11.39-93.98 18.73-158.54 18.73s-121.97-7.34-158.54-18.73c-26-8.1-41.46-18.25-41.46-29.27 0-19.7 49.46-36.63 120.2-44.03a775.691 775.691 0 0 1 79.8-3.97 775.691 775.691 0 0 1 79.8 3.97c70.74 7.4 120.2 24.33 120.2 44.03z" fill="#348ed8"/><path d="m414.54 237.27c-36.57 11.39-93.98 18.73-158.54 18.73s-121.97-7.34-158.54-18.73a40.042 40.042 0 0 1 38.54-29.27 40.015 40.015 0 0 1 40-40c0-1.36.07-2.7.2-4.03a40.025 40.025 0 0 1 39.8-35.97 40 40 0 0 1 80 0 40.025 40.025 0 0 1 39.8 35.97c.13 1.33.2 2.67.2 4.03a40 40 0 0 1 40 40 40.018 40.018 0 0 1 38.54 29.27z" fill="#ffb431"/><path d="m495.858 374.5-10.667-56-15.716 3 3.263 17.136-10.656 5.557a270.53 270.53 0 0 1 -48.076 19.552c-44.089 13.061-100.206 20.255-158.006 20.255-59.3 0-116.534-7.531-161.151-21.206l-4.69 15.3c46.096 14.125 104.992 21.906 165.841 21.906 59.3 0 117.028-7.428 162.551-20.917a286.6 286.6 0 0 0 50.929-20.706l6.385-3.329 3.2 16.819c-107.232 58.747-338.9 58.747-446.137 0l27.286-143.235q11.793 9.07 34.867 16.276c38.956 12.133 97.608 19.092 160.919 19.092s121.963-6.959 160.92-19.092q23.056-7.182 34.867-16.276l14.641 76.868 15.717-2.994-18.187-95.477c-.88-18.8-27.229-33.514-78.388-43.754l-3.14 15.688c51.87 10.379 65.57 23.537 65.57 29.037 0 4.68-8.951 12.184-28.716 19.253a48.237 48.237 0 0 0 -35.856-26.672 48.122 48.122 0 0 0 -40-40.008 48.147 48.147 0 0 0 -13.489-26.511 47.646 47.646 0 0 0 -26.5-13.493 48.015 48.015 0 0 0 -94.864 0 47.647 47.647 0 0 0 -26.506 13.494 48.167 48.167 0 0 0 -12.7 22.608c-29.7 3.39-55.8 8.518-75.8 14.905l4.87 15.241a316.9 316.9 0 0 1 40.8-9.67 47.54 47.54 0 0 0 -10.67 23.422 47.647 47.647 0 0 0 -26.506 13.494 48.175 48.175 0 0 0 -9.33 13.2c-19.778-7.075-28.733-14.582-28.733-19.263 0-3.371 5.055-9.213 19.242-15.5l-6.484-14.63c-18.5 8.2-28.133 17.987-28.7 29.087l-31.916 167.543a8 8 0 0 0 3.812 8.4c27.207 15.95 62.766 28.38 105.688 36.945 39.845 7.955 84.922 12.155 130.358 12.155s90.513-4.2 130.358-12.155c42.922-8.565 78.481-21 105.688-36.943a8 8 0 0 0 3.812-8.402zm-359.858-158.5a8 8 0 0 0 8-8 32.013 32.013 0 0 1 32-32 8 8 0 0 0 8-8c0-1.055.055-2.15.16-3.228a32.023 32.023 0 0 1 31.84-28.772 8 8 0 0 0 8-8 32 32 0 0 1 64 0 8 8 0 0 0 8 8 32.024 32.024 0 0 1 31.838 28.747c.107 1.1.162 2.2.162 3.253a8 8 0 0 0 8 8 32.036 32.036 0 0 1 32 32 8 8 0 0 0 8 8 32.12 32.12 0 0 1 27.754 16.073c-37.308 10.159-90.439 15.927-147.754 15.927s-110.44-5.768-147.748-15.925a32.2 32.2 0 0 1 5.124-6.7 31.791 31.791 0 0 1 22.624-9.375z"/><path d="m248 192v-16a40.045 40.045 0 0 0 -40 40h16a24.027 24.027 0 0 1 24-24z"/><path d="m256 136h16v16h-16z"/><path d="m288 200h16v16h-16z"/><path d="m168 200h16v16h-16z"/><path d="m48.131 316.364h57.471v16h-57.471z" transform="matrix(.184 -.983 .983 .184 -256.106 340.167)"/><path d="m77.192 265.02h18.336v16h-18.336z" transform="matrix(.179 -.984 .984 .179 -197.705 309.146)"/></g></svg>