<svg height="512" viewBox="0 0 512 512" width="512" xmlns="http://www.w3.org/2000/svg"><g id="Filled_outline" data-name="Filled outline"><path d="m416 72 36.98 66.564a23.994 23.994 0 0 1 3.02 11.655v313.781a24 24 0 0 1 -24 24h-296v-337.781a23.994 23.994 0 0 0 -3.02-11.655l-36.98-66.564z" fill="#f88400"/><path d="m104 24h304a8 8 0 0 1 8 8v40a0 0 0 0 1 0 0h-320a0 0 0 0 1 0 0v-40a8 8 0 0 1 8-8z" fill="#f88400"/><path d="m96 72-36.98 66.564a23.994 23.994 0 0 0 -3.02 11.655v313.781a24 24 0 0 0 24 24h296v-337.781a23.994 23.994 0 0 1 3.02-11.655l36.98-66.564z" fill="#ffb431"/><path d="m224 280h96v88h-96z" fill="#ef7800"/><path d="m293.167 336h-42.334a16 16 0 0 1 -14.856-10.058l-11.977-29.942v-72h96v72l-11.977 29.942a16 16 0 0 1 -14.856 10.058z" fill="#f88400"/><path d="m200 280h24v-56l-32 24z" fill="#ff9721"/><path d="m344 280h-24v-56l32 24z" fill="#ff9721"/><path d="m168 368h208v64h-208z" fill="#d65246"/><circle cx="144" cy="400" fill="#f88400" r="56"/><path d="m112 176v80l24-24 24 24v-80z" fill="#2d7dbe"/><path d="m173.142 144.615c6.6-13.877-7.88-28.354-21.757-21.757-5.148-14.477-25.622-14.477-30.77 0-13.877-6.6-28.354 7.88-21.757 21.757-14.477 5.148-14.477 25.622 0 30.77-6.6 13.877 7.88 28.354 21.757 21.757 5.148 14.477 25.622 14.477 30.77 0 13.877 6.6 28.354-7.88 21.757-21.757 14.477-5.148 14.477-25.622 0-30.77z" fill="#348ed8"/><path d="m400 368h56v64h-56z" fill="#ea7206"/><path d="m464 392v-241.781a32.077 32.077 0 0 0 -4.027-15.541l-35.973-64.751v-37.927a16.019 16.019 0 0 0 -16-16h-304a16.019 16.019 0 0 0 -16 16v37.927l-35.973 64.75a32.084 32.084 0 0 0 -4.027 15.542v25.781h16v-25.781a16.025 16.025 0 0 1 2.014-7.77l34.693-62.449h301.693l-30.377 54.677a32.084 32.084 0 0 0 -4.023 15.542v209.781h-40v-72h16a8 8 0 0 0 7.761-6.06l8-32a8 8 0 0 0 -2.961-8.34l-32-24v.007a7.951 7.951 0 0 0 -4.8-1.607h-96a7.951 7.951 0 0 0 -4.795 1.607l-.005-.007-32 24a8 8 0 0 0 -2.961 8.34l8 32a8 8 0 0 0 7.761 6.06h16v72h-22.093a64 64 0 1 0 0 80h174.093v40h-288a16.019 16.019 0 0 1 -16-16v-272h-16v272a32.036 32.036 0 0 0 32 32h352a32.036 32.036 0 0 0 32-32v-56h-16v16h-32v-48h32v16zm-360-328v-32h304v32zm233.754 208h-9.754v-32l14.95 11.213zm-105.754-40h80v62.459l-11.4 28.512a7.963 7.963 0 0 1 -7.433 5.029h-13.167v-24a8 8 0 0 0 8-8v-8a8 8 0 0 0 -8-8h-16a8 8 0 0 0 -8 8v8a8 8 0 0 0 8 8v24h-13.167a7.963 7.963 0 0 1 -7.429-5.029l-11.404-28.512zm-30.95 19.213 14.95-11.213v32h-9.754zm30.95 83.671a23.868 23.868 0 0 0 18.833 9.116h42.334a23.868 23.868 0 0 0 18.833-9.116v25.116h-80zm-88 113.116a48 48 0 1 1 48-48 48.054 48.054 0 0 1 -48 48zm59.313-24a63.79 63.79 0 0 0 0-48h164.687v48zm204.687-64a8 8 0 0 0 -8 8v64a8 8 0 0 0 8 8h40v24a16.019 16.019 0 0 1 -16 16h-48v-329.781a16.025 16.025 0 0 1 2.014-7.77l29.986-53.976 29.986 53.977a16.018 16.018 0 0 1 2.014 7.769v81.781h-48v16h48v16h-48v16h48v16h-48v16h48v16h-48v16h48v16z"/><path d="m248 248h16v16h-16z"/><path d="m280 248h16v16h-16z"/><path d="m224 392h16v16h-16z"/><path d="m256 392h16v16h-16z"/><path d="m288 392h16v16h-16z"/><path d="m320 392h16v16h-16z"/><path d="m136 376h-16a8.009 8.009 0 0 1 -8 8v16a24.027 24.027 0 0 0 24-24z"/><path d="m152 376v16a8.009 8.009 0 0 1 8 8h16a24.027 24.027 0 0 0 -24-24z"/><path d="m144 408h-16a24.027 24.027 0 0 0 24 24v-16a8.009 8.009 0 0 1 -8-8z"/><path d="m80 160a24.049 24.049 0 0 0 9.44 19.286 24.054 24.054 0 0 0 6.96 20.314 24.6 24.6 0 0 0 7.6 5.186v51.214a8 8 0 0 0 13.657 5.657l18.343-18.344 18.343 18.344a8 8 0 0 0 13.657-5.657v-51.216a24.628 24.628 0 0 0 7.6-5.186 24.054 24.054 0 0 0 6.962-20.312 24.421 24.421 0 0 0 0-38.572 24.42 24.42 0 0 0 -27.275-27.274 24.418 24.418 0 0 0 -38.57 0 24.418 24.418 0 0 0 -27.277 27.274 24.049 24.049 0 0 0 -9.44 19.286zm61.657 66.343a8 8 0 0 0 -11.314 0l-10.343 10.344v-26.627a24.517 24.517 0 0 0 32 0v26.628zm-40.119-74.19a8 8 0 0 0 4.545-10.972 8.329 8.329 0 0 1 11.1-11.1 8 8 0 0 0 10.971-4.545 8.33 8.33 0 0 1 15.7 0 8 8 0 0 0 10.971 4.544 8.329 8.329 0 0 1 11.1 11.1 8 8 0 0 0 4.545 10.972 8.328 8.328 0 0 1 0 15.694 8 8 0 0 0 -4.545 10.972 8.329 8.329 0 0 1 -11.1 11.1 8 8 0 0 0 -10.971 4.545 8.33 8.33 0 0 1 -15.7 0 8 8 0 0 0 -10.971-4.545 8.329 8.329 0 0 1 -11.1-11.1 8 8 0 0 0 -4.545-10.972 8.328 8.328 0 0 1 0-15.694z"/><path d="m248 136h96v16h-96z"/><path d="m216 136h16v16h-16z"/><path d="m216 168h128v16h-128z"/></g></svg>