<svg height="512" viewBox="0 0 512 512" width="512" xmlns="http://www.w3.org/2000/svg"><g id="Filled_outline" data-name="Filled outline"><path d="m256 80-184 128v280h368v-280z" fill="#348ed8"/><path d="m48 456h416v32h-416z" fill="#459ce5"/><path d="m256 232a120 120 0 0 1 120 120v136a0 0 0 0 1 0 0h-240a0 0 0 0 1 0 0v-136a120 120 0 0 1 120-120z" fill="#34507b"/><path d="m256 24-232 160v56l48-32 184-128 184 128 48 32v-56z" fill="#d65246"/><path d="m304 384v-24l32-16v-32l-40-40h-80l-40 40v32l32 16v24a40 40 0 0 0 -40 40v40a24 24 0 0 0 24 24h128a24 24 0 0 0 24-24v-40a40 40 0 0 0 -40-40z" fill="#f88400"/><g fill="#7a432a"><path d="m232 312h16v16h-16z"/><path d="m264 312h16v16h-16z"/><rect height="24" rx="8" width="32" x="240" y="344"/></g><path d="m312 440v-24h-16v24h-16a31.923 31.923 0 0 0 -24 10.868 31.923 31.923 0 0 0 -24-10.868h-16v-24h-16v24h-8v16h40a16.019 16.019 0 0 1 16 16v16h16v-16a16.019 16.019 0 0 1 16-16h40v-16z" fill="#ea7206"/><rect fill="#ea7206" height="56" rx="8" width="16" x="200" y="304"/><rect fill="#ea7206" height="56" rx="8" width="16" x="296" y="304"/><path d="m492.542 177.414-232-160a8 8 0 0 0 -9.084 0l-120 82.759 9.084 13.172 115.458-79.627 224 154.482v36.851l-219.432-151.618a8 8 0 0 0 -9.136 0l-219.432 151.619v-36.852l92.542-63.822-9.084-13.172-96 66.207a8 8 0 0 0 -3.458 6.587v56a8 8 0 0 0 12.438 6.656l35.562-23.708v225.052h-16a8 8 0 0 0 -8 8v32a8 8 0 0 0 8 8h416a8 8 0 0 0 8-8v-32a8 8 0 0 0 -8-8h-16v-208h-16v16h-91.436a127.735 127.735 0 0 0 -169.128 0h-91.436v-43.82l6.009-4.18h339.982l57.571 38.656a8 8 0 0 0 12.438-6.656v-56a8 8 0 0 0 -3.458-6.586zm-181.551-49.414h-109.982l54.991-38.255zm-182.991 224v32h-48v-48h49a128.627 128.627 0 0 0 -1 16zm-48 48h48v48h-48zm-24 64h72v16h-72zm376-80h-48v-32a128.627 128.627 0 0 0 -1-16h49zm24 96h-72v-16h72zm-72-32v-48h48v48zm48-128h-52.05a127.686 127.686 0 0 0 -24.109-48h76.159zm-176-80a112.127 112.127 0 0 1 112 112v128h-20.3a31.8 31.8 0 0 0 4.3-16v-40a48.078 48.078 0 0 0 -40-47.333v-11.723l27.578-13.789a8 8 0 0 0 4.422-7.155v-32a8 8 0 0 0 -2.343-5.657l-40-40a8 8 0 0 0 -5.657-2.343h-80a8 8 0 0 0 -5.657 2.343l-40 40a8 8 0 0 0 -2.343 5.657v32a8 8 0 0 0 4.422 7.155l27.578 13.789v11.711a47.587 47.587 0 0 0 -30.4 18.535l12.8 9.61a31.764 31.764 0 0 1 25.6-12.8 8 8 0 0 0 8-8v-80h-16v43.056l-16-8v-23.743l35.314-35.313h73.372l35.314 35.313v23.743l-16 8v-43.056h-16v80a8 8 0 0 0 8 8 32.036 32.036 0 0 1 32 32v40a16.019 16.019 0 0 1 -16 16h-56v-8a16.019 16.019 0 0 1 16-16h40v-16h-8v-24h-16v24h-16a31.923 31.923 0 0 0 -24 10.868 31.923 31.923 0 0 0 -24-10.868h-16v-24h-16v24h-8v16h40a16.019 16.019 0 0 1 16 16v8h-56a16.019 16.019 0 0 1 -16-16v-40a32.263 32.263 0 0 1 .64-6.408l-15.68-3.184a48.317 48.317 0 0 0 -.96 9.592v40a31.8 31.8 0 0 0 4.305 16h-20.305v-128a112.127 112.127 0 0 1 112-112zm-99.841 32a127.686 127.686 0 0 0 -24.109 48h-52.05v-48zm-47.15-80 69-48h155.982l69 48z"/><path d="m96 224h16v16h-16z"/><path d="m96 288h16v16h-16z"/><path d="m96 352h16v16h-16z"/><path d="m96 416h16v16h-16z"/><path d="m400 224h16v16h-16z"/><path d="m400 288h16v16h-16z"/><path d="m400 352h16v16h-16z"/><path d="m400 416h16v16h-16z"/><path d="m232 312h16v16h-16z"/><path d="m264 312h16v16h-16z"/><rect height="24" rx="8" width="32" x="240" y="344"/></g></svg>