<?xml version="1.0"?>
<svg xmlns="http://www.w3.org/2000/svg" viewBox="0 0 512 512" width="512" height="512"><g id="Filled_outline" data-name="Filled outline"><polygon points="184 232 184 336 80 344 64 400 24 400 24 368 48 304 136 296 128 232 184 232" style="fill:#f96d00"/><path d="M474.558,162.287C447.686,188.461,408,192.424,408,192.424V224c64.544-14.153,77.657-47.338,79.68-54.058a7.576,7.576,0,0,0,.32-2.192h0C488,160.823,479.554,157.421,474.558,162.287Z" style="fill:#f96d00"/><path d="M352,384h0l-16,72-16,16v16h48l40-136V280H296l3.959,47.506A62.539,62.539,0,0,0,352,384Z" style="fill:#f96d00"/><path d="M440,312V248a64,64,0,0,0-64-64H232L148.588,32.156A16,16,0,0,0,134.642,24H83.824A19.131,19.131,0,0,0,66.712,34.576L56,56H32a8,8,0,0,0-8,8v40a16,16,0,0,0,16,16H80l24,64v88l24,64v40l-8,80-16,16v16h48l32-112V336h48l104-40h0a106.478,106.478,0,0,0,71.785,72.735L432,376l-17.143,80L400,472v16h48l40-128Z" style="fill:#ffb431"/><path d="M448,308.687V248a71.582,71.582,0,0,0-5.1-26.57c39.911-17.04,50.182-41.671,52.426-49.125A15.4,15.4,0,0,0,496,167.75a15.884,15.884,0,0,0-27.021-11.191c-21.139,20.587-51.594,26.4-59.708,27.62A71.534,71.534,0,0,0,376,176H236.733L155.561,28.233A24.032,24.032,0,0,0,134.643,16H83.824A26.984,26.984,0,0,0,59.557,31l-8.5,17H32A16.019,16.019,0,0,0,16,64v40a24.028,24.028,0,0,0,24,24H74.456L96,185.451V272a8,8,0,0,0,.509,2.809l21.833,58.22-38.955,2.994a8,8,0,0,0-7.079,5.779L57.965,392H32V369.451l21.727-57.939,35.124-3.194L87.4,292.384l-40.126,3.649a8,8,0,0,0-6.766,5.158l-24,64A8,8,0,0,0,16,368v32a8,8,0,0,0,8,8H64a8,8,0,0,0,7.692-5.8L86.163,351.55l33.837-2.6V375.6l-7.676,76.761L98.343,466.343A8,8,0,0,0,96,472v16a8,8,0,0,0,8,8h48a8,8,0,0,0,7.692-5.8l32-112A8.013,8.013,0,0,0,192,376V344h40a8.009,8.009,0,0,0,2.872-.533l96.144-36.979a113.809,113.809,0,0,0,62.72,65.675L362.014,480H328v-4.687l13.657-13.656a8.006,8.006,0,0,0,2.153-3.922l16-72a8,8,0,0,0-6.494-9.626A54.587,54.587,0,0,1,309.5,336.055l-15.485,4.024a70.606,70.606,0,0,0,48.455,49.932L328.7,451.99l-14.353,14.353A8,8,0,0,0,312,472v16a8,8,0,0,0,8,8h48a8,8,0,0,0,7.675-5.742l33.194-112.845,13.762,4.129L407.5,452.17l-13.358,14.387A8,8,0,0,0,392,472v16a8,8,0,0,0,8,8h48a8,8,0,0,0,7.636-5.614L476.3,424.265l-15.272-4.773L442.119,480H408v-4.858l12.719-13.7a8,8,0,0,0,1.96-3.767l17.143-80a8,8,0,0,0-5.523-9.339l-24.216-7.264a98.055,98.055,0,0,1-66.365-67.185l-7.957-31.828-15.522,3.88,6.283,25.134L230.515,328H192V288H176v86.88L145.966,480H112v-4.687l13.657-13.656a8,8,0,0,0,2.3-4.861l8-80a7.828,7.828,0,0,0,.04-.8V336a8,8,0,0,0-.509-2.809L112,270.549V184a8,8,0,0,0-.509-2.809l-24-64A8,8,0,0,0,80,112H40a8.009,8.009,0,0,1-8-8V64H56a8,8,0,0,0,7.155-4.422L73.868,38.153A11.072,11.072,0,0,1,83.824,32h50.819a7.979,7.979,0,0,1,6.933,4.007l83.412,151.845A8,8,0,0,0,232,192H376a56.064,56.064,0,0,1,56,56v64a8,8,0,0,0,2.343,5.657l44.577,44.577-12.368,39.579,15.271,4.773,13.813-44.2a8,8,0,0,0-1.979-8.043ZM426.633,196.869c14.823-3.958,36.135-12.114,53.14-28.471-1.887,5.51-10.718,24.848-44.455,38.856A72.638,72.638,0,0,0,426.633,196.869Z"/><path d="M88.155,46.431l-8,40a8,8,0,0,0,2.188,7.226l16,16a8,8,0,0,0,7.6,2.1l32-8A8,8,0,0,0,144,96V48H128V89.754L106.454,95.14l-9.77-9.769,7.161-35.8Z"/></g></svg>
