<svg height="512" viewBox="0 0 512 512" width="512" xmlns="http://www.w3.org/2000/svg"><g id="Filled_outline" data-name="Filled outline"><path d="m296 128v-24h-80v24a91.945 91.945 0 0 0 -72 89.756v262.244a8 8 0 0 0 8 8h208a8 8 0 0 0 8-8v-262.244a91.945 91.945 0 0 0 -72-89.756z" fill="#d5d5d3"/><path d="m224 24h64a8 8 0 0 1 8 8v72a0 0 0 0 1 0 0h-80a0 0 0 0 1 0 0v-72a8 8 0 0 1 8-8z" fill="#dfdfdd"/><path d="m144 224h224v216h-224z" fill="#4db6e4"/><path d="m304 304a32 32 0 0 1 32 32v96a0 0 0 0 1 0 0h-32a0 0 0 0 1 0 0v-128a0 0 0 0 1 0 0z" fill="#ea7206"/><path d="m336 440h-144v-136l-16-16 24-32h48l24 32-16 16v10.584a8 8 0 0 0 5.029 7.428l34.74 13.9a64 64 0 0 1 40.231 59.418z" fill="#f88400"/><path d="m368 224v52.14a74.585 74.585 0 0 1 -24 3.86c-30.93 0-56-17.91-56-40a30.351 30.351 0 0 1 4.67-16z" fill="#348ed8"/><path d="m354.016 155.218a100.329 100.329 0 0 0 -50.016-33.418v-89.8a16.019 16.019 0 0 0 -16-16h-64a16.019 16.019 0 0 0 -16 16v89.8a100.179 100.179 0 0 0 -37.218 20.171l10.436 12.129a84.147 84.147 0 0 1 36.517-18.287 8 8 0 0 0 6.265-7.813v-16h64v16a8 8 0 0 0 6.265 7.81 83.9 83.9 0 0 1 65.7 80.19h-207.927a84.215 84.215 0 0 1 18.591-50.975l-12.449-10.05a100.263 100.263 0 0 0 -22.18 62.781v262.244a16.019 16.019 0 0 0 16 16h208a16.019 16.019 0 0 0 16-16v-80h-16v32h-16v-96a40.045 40.045 0 0 0 -40-40 8 8 0 0 0 -8 8v23.383l-32-12.8v-7.271l13.657-13.656a8 8 0 0 0 .743-10.456l-24-32a8 8 0 0 0 -6.4-3.2h-48a8 8 0 0 0 -6.4 3.2l-24 32a8 8 0 0 0 .743 10.457l13.657 13.656v108.687h16v-136h-8l12-16h40l12 16h-8v34.584a15.922 15.922 0 0 0 10.058 14.855l34.74 13.9a55.734 55.734 0 0 1 35.2 52v36.661h-62.627a24.042 24.042 0 0 1 22.629-16h8a8 8 0 0 0 6.656-12.438l-3.448-5.172a19.655 19.655 0 0 1 2.449-24.734l-11.314-11.312a35.725 35.725 0 0 0 -8.01 38.056 39.8 39.8 0 0 0 -18.333 7.628v-40.028h-16v64h-16v-64h-16v64h-64v-200h128.871a37.155 37.155 0 0 0 -.871 8c0 13.339 7.015 25.695 19.751 34.793 11.923 8.517 27.637 13.207 44.249 13.207a84.941 84.941 0 0 0 16-1.507v97.507h16v-166.244a100.29 100.29 0 0 0 -21.984-62.538zm-130.016-59.218v-64h64v64zm88 239.447v-22.076a24.042 24.042 0 0 1 16 22.629v13.982a71.564 71.564 0 0 0 -16-14.535zm48 112.553v32h-208v-32zm-16-176c-26.019 0-48-14.654-48-32a21.457 21.457 0 0 1 1.562-8h62.438v38.141a68.011 68.011 0 0 1 -16 1.859z"/><path d="m218.669 168.772-5.338-15.084a68.3 68.3 0 0 0 -15.255 7.669l8.917 13.286a52.21 52.21 0 0 1 11.676-5.871z"/><path d="m182.945 175.24a67.727 67.727 0 0 0 -11.883 22.388l15.281 4.744a51.793 51.793 0 0 1 9.082-17.119c1.021-1.272 2.113-2.508 3.248-3.674l-11.468-11.158c-1.488 1.53-2.921 3.151-4.26 4.819z"/><path d="m240 48h16v32h-16z"/><path d="m216 288h16v16h-16z"/></g></svg>