<?xml version="1.0"?>
<svg xmlns="http://www.w3.org/2000/svg" viewBox="0 0 512 512" width="512" height="512"><g id="Filled_outline" data-name="Filled outline"><path d="M432,88h-.088A7.906,7.906,0,0,1,424,80.088V80a56,56,0,0,0-56.743-55.995C336.482,24.4,312,50.058,312,80.835v35.283a48,48,0,0,1-14.059,33.941L150.059,297.941A48,48,0,0,1,116.118,312H80.835c-30.777,0-56.431,24.482-56.83,55.257A56,56,0,0,0,80,424h.088A7.906,7.906,0,0,1,88,431.912V432a56,56,0,0,0,56.743,56c30.775-.4,55.257-26.053,55.257-56.83V395.882a48,48,0,0,1,14.059-33.941L361.941,214.059A48,48,0,0,1,395.882,200h35.283c30.777,0,56.431-24.482,56.83-55.257A56,56,0,0,0,432,88Z" style="fill:#f88400"/><path d="M477.549,99.041A63.6,63.6,0,0,0,432,80a64,64,0,0,0-64.847-63.994C332.33,16.457,304,45.54,304,80.835v35.283A39.733,39.733,0,0,1,292.284,144.4L144.4,292.284A39.733,39.733,0,0,1,116.118,304H80.835a65.284,65.284,0,0,0-33.286,9.119l8.16,13.762A49.293,49.293,0,0,1,80.835,320h35.283a55.637,55.637,0,0,0,39.6-16.4L303.6,155.716a55.637,55.637,0,0,0,16.4-39.6V80.835C320,54.248,341.246,32.343,367.36,32A48,48,0,0,1,416,80.082,15.9,15.9,0,0,0,431.985,96H432a48,48,0,0,1,48,48.64c-.339,26.114-22.244,47.36-48.831,47.36H395.882a55.637,55.637,0,0,0-39.6,16.4l-17.941,17.942,11.314,11.314L367.6,219.716A39.733,39.733,0,0,1,395.882,208h35.283c35.295,0,64.378-28.33,64.829-63.153A63.558,63.558,0,0,0,477.549,99.041Z"/><path d="M208.4,356.284a55.637,55.637,0,0,0-16.4,39.6v35.283c0,26.587-21.246,48.492-47.36,48.831a48.006,48.006,0,0,1-40.04-75.419l-13.123-9.154a63.6,63.6,0,0,0-9.486,20.708A16.544,16.544,0,0,0,80.015,416H80a48,48,0,0,1-48-48.64,46.991,46.991,0,0,1,8.739-26.725L27.7,331.365a62.925,62.925,0,0,0-11.7,35.788A64,64,0,0,0,80,432a64,64,0,0,0,63.991,64c.284,0,.571,0,.856-.006C179.67,495.543,208,466.46,208,431.165V395.882A39.729,39.729,0,0,1,219.716,367.6L336.907,250.407l-11.314-11.314Z"/><rect x="120.235" y="247.999" width="271.529" height="16.001" transform="translate(-106.039 256) rotate(-45)"/><path d="M80,352V336a32.036,32.036,0,0,0-32,32H64A16.019,16.019,0,0,1,80,352Z"/><path d="M407.269,102.853l-8.258-13.706a63.918,63.918,0,0,0-28.36,36.571l15.336,4.564A47.938,47.938,0,0,1,407.269,102.853Z"/></g></svg>
