<svg height="512" viewBox="0 0 512 512" width="512" xmlns="http://www.w3.org/2000/svg"><g id="Filled_outline" data-name="Filled outline"><path d="m99.716 265.206h56.569v237.588h-56.569z" fill="#d65246" transform="matrix(.707 -.707 .707 .707 -234.039 202.981)"/><path d="m123.716 379.716h56.569v56.569h-56.569z" fill="#ffb431" transform="matrix(.707 -.707 .707 .707 -243.98 226.981)"/><path d="m64 280 56-176 288 288-176 56z" fill="#348ed8"/><path d="m465.08 369.08c-38.25 38.24-114.64 27.06-188.59-21.83a396.241 396.241 0 0 1 -61.36-50.38c-45.45-45.45-76.12-96.89-88.69-142.88-12.06-44.03-7.53-83.06 16.48-107.07 49.09-49.08 160.99-16.75 249.95 72.21a402.869 402.869 0 0 1 41.74 48.87c24.32 33.68 40.87 68.35 48.53 100.11 10.01 41.52 4.83 78.08-18.06 100.97z" fill="#4db6e4"/><path d="m488.03 238.98a89.57 89.57 0 0 1 -21.55 58.13l-.6.69a84.3 84.3 0 0 1 -5.88 6.2 86.705 86.705 0 0 1 -60.1 24.11l-96.31-.1a15.938 15.938 0 0 0 -10.85 4.23l-16.25 15.01a396.241 396.241 0 0 1 -61.36-50.38q-8.985-8.985-17.2-18.26-6.27-7.08-12.07-14.29c-29.47-36.54-49.77-75.04-59.42-110.33l19.15-23.98a48.016 48.016 0 0 1 37.48-18.01h95.99a63.992 63.992 0 0 1 52.08 26.8l16.07 22.5a16.032 16.032 0 0 0 13.02 6.7h111.77a15.984 15.984 0 0 1 16 16c0 14.6.01 36.63.03 54.98z" fill="#ffb431"/><circle cx="288" cy="184" fill="#7a432a" r="16"/><path d="m440 168h32a16 16 0 0 1 16 16v32a0 0 0 0 1 0 0h-48a16 16 0 0 1 -16-16v-16a16 16 0 0 1 16-16z" fill="#7a432a"/><path d="m459.423 363.423c-12.615 12.616-30.078 19.5-51.908 20.455-26.372 1.179-57.412-6.5-89.763-22.2a314.043 314.043 0 0 1 -28.208-15.6l8.626-7.959a7.943 7.943 0 0 1 5.4-2.113h.01l96.306.1h.1a94.669 94.669 0 0 0 71.965-33.1l.6-.7a97.289 97.289 0 0 0 23.472-63.338c-.015-18.351-.021-40.384-.023-54.983a24.03 24.03 0 0 0 -24-23.985h-111.767a8.015 8.015 0 0 1 -6.509-3.35l-16.071-22.5a72.139 72.139 0 0 0 -58.589-30.15h-95.994a55.723 55.723 0 0 0 -43.729 21.018l-8.83 11.037a141.975 141.975 0 0 1 -2.389-31.575c.957-21.825 7.839-39.288 20.454-51.9 21.589-21.584 57.864-26.426 102.148-13.632 45.93 13.27 94.4 43.756 136.489 85.842 7.6 7.6 14.942 15.543 21.82 23.609l12.174-10.382c-7.151-8.386-14.782-16.643-22.68-24.541-43.965-43.965-94.879-75.892-143.363-89.9-50.135-14.483-92-8.2-117.9 17.689-14.952 14.952-23.567 35.92-25.012 60.706l-21.939 68.947 15.247 4.852 10.2-32.051c8.956 42.693 33.63 90.123 70.195 133.268 7.355 8.695 15.269 17.287 23.521 25.54 49.389 49.389 107.119 83.006 158.675 93.758l-133.936 42.615-161.115-161.115 27.863-87.569-15.246-4.852-28.749 90.354-38.625 38.625a8 8 0 0 0 0 11.314l168 168a8 8 0 0 0 11.314 0l38.625-38.625 173.75-55.283c24.787-1.447 45.754-10.061 60.705-25.012 15.946-15.946 24.672-38.634 25.234-65.612l-16-.334c-.478 23.096-7.392 41.477-20.548 54.632zm12.577-187.423a8.01 8.01 0 0 1 8 8c0 6.77 0 15.145.006 24h-40.006a8.009 8.009 0 0 1 -8-8v-16a8.009 8.009 0 0 1 8-8zm-270.911 94.033 38.5-115.5-15.18-5.06-35.341 106.027c-25.805-32.838-44.351-67.473-53.839-99.724l16.606-20.759a39.806 39.806 0 0 1 31.235-15.017h95.994a56.112 56.112 0 0 1 45.57 23.45l16.07 22.5a24.047 24.047 0 0 0 19.529 10.05h57.143a23.889 23.889 0 0 0 -1.376 8v16a24.028 24.028 0 0 0 24 24h40.015c0 5.115.006 10.179.01 14.989a81.209 81.209 0 0 1 -16.501 49.011h-127.524v16h111.73a78.679 78.679 0 0 1 -47.741 16.109h-.082l-96.3-.1h-.03a23.905 23.905 0 0 0 -16.255 6.354l-11.594 10.7a392.058 392.058 0 0 1 -54.938-45.846c-6.868-6.869-13.463-13.981-19.701-21.184zm-137.089 21.281 76.686 76.686-28.686 28.686-76.687-76.686zm59.313 116.686 28.687-28.686 28.686 28.686-28.686 28.687zm68.687 68.687-28.686-28.687 28.686-28.686 28.686 28.686z"/><path d="m288 208a24 24 0 1 0 -24-24 24.028 24.028 0 0 0 24 24zm0-32a8 8 0 1 1 -8 8 8.009 8.009 0 0 1 8-8z"/><path d="m110.288 206.999h14.757v16.001h-14.757z" transform="matrix(.316 -.949 .949 .316 -123.512 258.63)"/><path d="m80.504 250.5h45.326v16h-45.326z" transform="matrix(.316 -.949 .949 .316 -174.691 274.649)"/><path d="m56 312h16v16h-16z"/><path d="m80 336h16v16h-16z"/><path d="m104 360h16v16h-16z"/><path d="m184 440h16v16h-16z"/></g></svg>