<svg height="512" viewBox="0 0 512 512" width="512" xmlns="http://www.w3.org/2000/svg"><g id="Filled_outline" data-name="Filled outline"><rect fill="#459ce5" height="400" rx="40" width="464" x="24" y="88"/><rect fill="#459ce5" height="336" rx="40" width="464" x="24" y="152"/><rect fill="#348ed8" height="272" rx="40" width="464" x="24" y="216"/><rect fill="#d5d5d3" height="64" rx="8" width="48" x="96" y="120"/><rect fill="#d5d5d3" height="64" rx="8" width="48" x="368" y="120"/><rect fill="#dfdfdd" height="48" rx="8" width="48" x="96" y="120"/><rect fill="#dfdfdd" height="48" rx="8" width="48" x="368" y="120"/><path d="m176 48v72h32v-64h96v64h32v-72a24 24 0 0 0 -24-24h-112a24 24 0 0 0 -24 24z" fill="#34507b"/><path d="m328 320h-48v-48h-48v48h-48v48h48v48h48v-48h48z" fill="#dfdfdd"/><path d="m448 80h-88v16h88a32.036 32.036 0 0 1 32 32v28.261a47.8 47.8 0 0 0 -32-12.261h-24v-16a16.019 16.019 0 0 0 -16-16h-32a16.019 16.019 0 0 0 -16 16v16h-208v-16a16.019 16.019 0 0 0 -16-16h-32a16.019 16.019 0 0 0 -16 16v16h-24a47.8 47.8 0 0 0 -32 12.261v-28.261a32.092 32.092 0 0 1 25.544-31.35l-3.209-15.675a48.147 48.147 0 0 0 -38.335 47.025v320a48.053 48.053 0 0 0 48 48h384a48.053 48.053 0 0 0 48-48v-24.333h-16v24.333a32.036 32.036 0 0 1 -32 32h-384a32.036 32.036 0 0 1 -32-32v-192a32.036 32.036 0 0 1 32-32h384a32.036 32.036 0 0 1 32 32v149.667h16v-277.667a48.053 48.053 0 0 0 -48-48zm-72 48h32l.01 48h-32.01zm-272 0h32l.01 48h-32.01zm376 92.261a47.8 47.8 0 0 0 -32-12.261h-384a47.8 47.8 0 0 0 -32 12.261v-28.261a32.036 32.036 0 0 1 32-32h24v16a16.019 16.019 0 0 0 16 16h32a16.019 16.019 0 0 0 16-16v-16h208v16a16.019 16.019 0 0 0 16 16h32a16.019 16.019 0 0 0 16-16v-16h24a32.036 32.036 0 0 1 32 32z"/><path d="m168 120a8 8 0 0 0 8 8h32a8 8 0 0 0 8-8v-24h80v24a8 8 0 0 0 8 8h32a8 8 0 0 0 8-8v-72a32.036 32.036 0 0 0 -32-32h-112a32.036 32.036 0 0 0 -32 32v32h-94.5v16h94.5zm48-40v-16h80v16zm-32-32a16.019 16.019 0 0 1 16-16h112a16.019 16.019 0 0 1 16 16v64h-16v-56a8 8 0 0 0 -8-8h-96a8 8 0 0 0 -8 8v56h-16z"/><path d="m232 424h48a8 8 0 0 0 8-8v-40h40a8 8 0 0 0 8-8v-48a8 8 0 0 0 -8-8h-40v-40a8 8 0 0 0 -8-8h-48a8 8 0 0 0 -8 8v40h-40a8 8 0 0 0 -8 8v48a8 8 0 0 0 8 8h40v40a8 8 0 0 0 8 8zm-40-64v-32h40a8 8 0 0 0 8-8v-40h32v40a8 8 0 0 0 8 8h40v32h-40a8 8 0 0 0 -8 8v40h-32v-40a8 8 0 0 0 -8-8z"/><path d="m56 264h16v16h-16z"/><path d="m56 296h16v112h-16z"/></g></svg>