<svg height="512" viewBox="0 0 512 512" width="512" xmlns="http://www.w3.org/2000/svg"><g id="Filled_outline" data-name="Filled outline"><path d="m144 24h224a16 16 0 0 1 16 16v40a0 0 0 0 1 0 0h-256a0 0 0 0 1 0 0v-40a16 16 0 0 1 16-16z" fill="#d65246"/><path d="m410.22 319.11a305.98 305.98 0 0 1 -41.15 153.22l-9.07 15.67h-208l-9.07-15.67a305.779 305.779 0 0 1 -13.74-279.74 91.151 91.151 0 0 0 3.49-66.55 91.366 91.366 0 0 1 -4.68-28.83v-17.21h256v17.21a91.192 91.192 0 0 1 -4.68 28.83 91.151 91.151 0 0 0 3.49 66.55 305.657 305.657 0 0 1 27.41 126.52z" fill="#dfdfdd"/><path d="m402.6 386.93a305.515 305.515 0 0 1 -33.53 85.4l-9.07 15.67h-208l-9.07-15.67a305.663 305.663 0 0 1 -36.77-101.64l7.66 5.47a167.185 167.185 0 0 0 165.79 16.41 167.25 167.25 0 0 1 122.99-5.64z" fill="#d65246"/><g fill="#df6257"><path d="m208 352a54.371 54.371 0 0 1 -53.95-47.63l-1.23-9.81-.487-13.893 19-.334z"/><path d="m312 352h-48a47.991 47.991 0 0 1 -48-48v-15.5h32l15.17 14.69.83.81z"/><path d="m296 192-57 57.5h-63v-9.5a48 48 0 0 1 48-48z"/></g><path d="m368 224h-26.617a51.866 51.866 0 0 0 -49.2 35.464 106.577 106.577 0 0 0 -71.408-27.464h-9.55a106.582 106.582 0 0 0 -83.225 40 106.582 106.582 0 0 0 83.225 40h9.55a106.577 106.577 0 0 0 71.4-27.464 51.866 51.866 0 0 0 49.208 35.464h26.617a44.4 44.4 0 0 0 -30.358-42.119l-17.642-5.881 17.642-5.881a44.4 44.4 0 0 0 30.358-42.119z" fill="#d65246"/><path d="m180 256a12 12 0 1 0 12 12 12.01 12.01 0 0 0 -12-12z" fill="#7a432a"/><ellipse cx="212" cy="136" fill="#2f9ccb" rx="44" ry="24"/><path d="m390.093 189.28a83.15 83.15 0 0 1 -3.183-60.711 98.979 98.979 0 0 0 5.09-31.359v-57.21a24.028 24.028 0 0 0 -24-24h-224a24.028 24.028 0 0 0 -24 24v57.21a99.4 99.4 0 0 0 5.091 31.362 83.15 83.15 0 0 1 -3.184 60.708l14.566 6.619a99.153 99.153 0 0 0 3.8-72.389 83.325 83.325 0 0 1 -4.273-26.3v-9.21h240v9.21a83.054 83.054 0 0 1 -4.268 26.3 99.142 99.142 0 0 0 3.795 72.391 295.82 295.82 0 0 1 26.693 123.21 297.823 297.823 0 0 1 -5.617 57.547 174.537 174.537 0 0 0 -120.276 8.619 159.188 159.188 0 0 1 -157.858-15.627l-4.948-3.534a298.247 298.247 0 0 1 14-148.246l-15.046-5.441a313.783 313.783 0 0 0 23.529 263.909l9.07 15.67a8 8 0 0 0 6.926 3.992h208a8 8 0 0 0 6.924-3.992l9.076-15.671a315.8 315.8 0 0 0 16.666-33.174l-14.7-6.326a299.653 299.653 0 0 1 -15.819 31.485l-6.76 11.678h-198.774l-6.759-11.678a296.8 296.8 0 0 1 -31.865-79.747 175.189 175.189 0 0 0 164.9 11.291 158.6 158.6 0 0 1 110.184-7.574c-2.4 9.486-5.281 18.905-8.6 28.084l15.046 5.439a314.216 314.216 0 0 0 18.7-106.706 311.7 311.7 0 0 0 -28.126-129.829zm-254.093-117.28v-32a8.009 8.009 0 0 1 8-8h224a8.009 8.009 0 0 1 8 8v32z"/><path d="m121.753 267a8 8 0 0 0 0 10 115.127 115.127 0 0 0 23.588 22.219l.77 6.145a62.469 62.469 0 0 0 61.889 54.636 8 8 0 0 0 7.155-11.578l-14.455-28.906q4.779.435 9.635.472a56.091 56.091 0 0 0 53.665 40.012h48a8 8 0 0 0 5.657-13.657l-32-32-11.314 11.314 18.344 18.343h-9.373l-21.657-21.657-11.314 11.314 10.183 10.183a40.083 40.083 0 0 1 -33.269-24.04 114.282 114.282 0 0 0 61.876-22.424 59.781 59.781 0 0 0 52.25 30.624h26.617a8 8 0 0 0 8-8 52.324 52.324 0 0 0 -31.38-48 52.324 52.324 0 0 0 31.38-48 8 8 0 0 0 -8-8h-26.617a59.78 59.78 0 0 0 -52.25 30.63 114.4 114.4 0 0 0 -23.127-13.322l35.651-35.651a8 8 0 0 0 -5.657-13.657h-72a56.2 56.2 0 0 0 -48.5 27.994l13.849 8.012a40.16 40.16 0 0 1 34.651-20.006h8l-12.8 9.6 9.6 12.8 29.867-22.4h18.019l-27.568 27.568a114.631 114.631 0 0 0 -28.343-3.568h-9.55a114.022 114.022 0 0 0 -89.472 43zm72.214 74.82a46.522 46.522 0 0 1 -30.786-32.32 113.625 113.625 0 0 0 17.869 6.492zm17.258-101.82h9.55a98.411 98.411 0 0 1 66.044 25.4 8 8 0 0 0 12.949-3.408 43.81 43.81 0 0 1 41.615-29.992h17.733a36.346 36.346 0 0 1 -24 26.529l-17.646 5.881a8 8 0 0 0 0 15.18l17.642 5.881a36.346 36.346 0 0 1 24 26.529h-17.729a43.81 43.81 0 0 1 -41.615-29.994 8 8 0 0 0 -12.95-3.409 98.4 98.4 0 0 1 -66.043 25.403h-9.55a98.046 98.046 0 0 1 -72.7-32 98.046 98.046 0 0 1 72.7-32z"/><path d="m180 280a12 12 0 1 0 -12-12 12.013 12.013 0 0 0 12 12z"/><path d="m196.081 290.018 10.619 11.964c8.953-7.95 13.884-18.6 13.884-29.982s-4.931-22.032-13.884-29.982l-10.623 11.964a23.335 23.335 0 0 1 0 36.036z"/><path d="m264 136c0-18.243-22.355-32-52-32s-52 13.757-52 32 22.355 32 52 32 52-13.757 52-32zm-88 0c0-3.251 3.259-6.97 8.718-9.947 7.052-3.847 17-6.053 27.282-6.053s20.23 2.206 27.282 6.053c5.459 2.977 8.718 6.7 8.718 9.947s-3.259 6.97-8.718 9.947c-7.052 3.847-16.996 6.053-27.282 6.053s-20.23-2.206-27.282-6.053c-5.459-2.977-8.718-6.696-8.718-9.947z"/><path d="m280 112h64v16h-64z"/><path d="m280 144h64v16h-64z"/><path d="m160 440h16v16h-16z"/><path d="m192 440h48v16h-48z"/><path d="m336 440h16v16h-16z"/><path d="m304 440h16v16h-16z"/></g></svg>