<svg height="512" viewBox="0 0 512 512" width="512" xmlns="http://www.w3.org/2000/svg"><g id="Filled_outline" data-name="Filled outline"><rect fill="#f88400" height="304" rx="32" width="64" x="144" y="104"/><rect fill="#f88400" height="272" rx="32" width="64" x="272" y="120"/><path d="m376 256c0 25.07-15.01 48.06-40 66.01-17.16 12.34-39.04 22.3-64 28.91a278.764 278.764 0 0 1 -64 8.97q-3.975.105-8 .11a287.666 287.666 0 0 1 -56-5.39 229.244 229.244 0 0 1 -56-18.38c-29.09-14.2-50.33-33.81-59.29-56.23a65.237 65.237 0 0 1 -4.19-16 60.84 60.84 0 0 1 -.52-8c0-32.3 24.91-61.15 64-80.23a229.244 229.244 0 0 1 56-18.38 287.666 287.666 0 0 1 56-5.39q4.02 0 8 .11a278.764 278.764 0 0 1 64 8.97c24.96 6.61 46.84 16.57 64 28.91 24.99 17.95 40 40.94 40 66.01z" fill="#dfdfdd"/><path d="m488 215.38v81.24a47.384 47.384 0 0 1 -76.98 37l-19.02-15.22-27.01-21.61a55.921 55.921 0 0 1 2.87-89.49l24.14-16.9 19.76-13.84a47.432 47.432 0 0 1 27.18-8.56h1.68a47.376 47.376 0 0 1 47.38 47.38z" fill="#dfdfdd"/><g fill="#ea7206"><path d="m208 152.11v207.78q-3.975.105-8 .11a287.666 287.666 0 0 1 -56-5.39v-197.22a287.666 287.666 0 0 1 56-5.39q4.02 0 8 .11z"/><path d="m336 189.99v132.02c-17.16 12.34-39.04 22.3-64 28.91v-189.84c24.96 6.61 46.84 16.57 64 28.91z"/><path d="m88 175.77v160.46c-29.09-14.2-50.33-33.81-59.29-56.23a65.237 65.237 0 0 1 -4.19-16 60.84 60.84 0 0 1 -.52-8c0-32.3 24.91-61.15 64-80.23z"/><path d="m488 215.38v81.24a47.384 47.384 0 0 1 -76.98 37l-19.02-15.22v-128l19.76-13.84a47.432 47.432 0 0 1 27.18-8.56h1.68a47.376 47.376 0 0 1 47.38 47.38z"/></g><path d="m72 256a16 16 0 1 1 16-16 16.018 16.018 0 0 1 -16 16z" fill="#78462f"/><path d="m144 240v32l40.265 26.843a30.7 30.7 0 0 0 17.035 5.157 30.7 30.7 0 0 0 30.7-30.7v-34.6a30.7 30.7 0 0 0 -30.7-30.7 30.7 30.7 0 0 0 -17.031 5.157z" fill="#f88400"/><path d="m72 216a24 24 0 1 0 24 24 24.027 24.027 0 0 0 -24-24zm0 32a8 8 0 1 1 8-8 8.009 8.009 0 0 1 -8 8z"/><path d="m496 272v-56.62a55.443 55.443 0 0 0 -55.38-55.38h-1.68a55.191 55.191 0 0 0 -31.77 10.008l-43.9 30.737a2.454 2.454 0 0 1 -3.22-.368 127.7 127.7 0 0 0 -16.05-14.389v-33.988a39.994 39.994 0 0 0 -79.974-1.032 289.519 289.519 0 0 0 -48.026-6.532v-8.436a40 40 0 0 0 -80 0v14.954a234.485 234.485 0 0 0 -51.509 17.626c-43.527 21.246-68.491 53.109-68.491 87.42s24.964 66.174 68.492 87.42a234.5 234.5 0 0 0 51.508 17.626v14.954a40 40 0 0 0 80 0v-8.431a289.959 289.959 0 0 0 48.028-6.473 39.993 39.993 0 0 0 79.972-1.096v-8h-16v8a24 24 0 0 1 -48 0v-2.992c34.991-10.179 64.31-27 82.973-48.649a2.529 2.529 0 0 1 3.476-.224l20.551 16.511 19.021 15.221a55.384 55.384 0 0 0 89.979-43.247v-8.62h-16v8.62a39.384 39.384 0 0 1 -63.982 30.754l-16.018-12.818v-119.994l16.343-11.444a39.253 39.253 0 0 1 22.597-7.118h1.68a39.425 39.425 0 0 1 39.38 39.38v56.62zm-216-120a24 24 0 0 1 48 0v23.326a214 214 0 0 0 -48-20.243zm-128-16a24 24 0 1 1 48 0v8a299.483 299.483 0 0 0 -48 3.864zm0 108.281 36.7-24.469a22.7 22.7 0 0 1 35.3 18.888v34.6a22.7 22.7 0 0 1 -35.3 18.892l-36.7-24.473zm-56 86.855v-59.136h-16v50.872c-20.638-12.098-35.229-26.881-42.567-42.872h10.567v-16h-15.4a54.354 54.354 0 0 1 -.6-8c0-24.983 17.331-48.894 48-66.873v18.873h16v-27.136c29.608-13.464 66.3-20.864 104-20.864v40.048a38.551 38.551 0 0 0 -20.172 6.452l-27.828 18.552v-41.052h-16v160.655a219.892 219.892 0 0 1 -40-13.519zm104 44.864a24 24 0 0 1 -48 0v-11.864a299.483 299.483 0 0 0 48 3.864zm80-35.716v-156.284h-16v160.687a272.211 272.211 0 0 1 -48 6.861v-23.548h-16v24a282.991 282.991 0 0 1 -48-4.084v-60.968l27.828 18.552a38.7 38.7 0 0 0 60.172-32.2v-34.6a38.76 38.76 0 0 0 -24-35.8v-42.46c43.692 2.405 83.747 14.578 112 33.692v123.696a176.519 176.519 0 0 1 -37.545 18.892q-5.128 1.896-10.455 3.564zm104-38.573-7.529-6.049a18.435 18.435 0 0 0 -25.617 2.251c-2.107 2.445-4.408 4.825-6.854 7.15v-98.135c1.5 1.432 2.971 2.882 4.358 4.368a18.558 18.558 0 0 0 24.09 2.558l11.552-8.089z"/></g></svg>