<svg height="512" viewBox="0 0 512 512" width="512" xmlns="http://www.w3.org/2000/svg"><g id="Filled_outline" data-name="Filled outline"><path d="m256 24v192a80 80 0 0 1 80 80v160h48v-336a96 96 0 0 0 -96-96z" fill="#348ed8"/><path d="m336 456h48v32h-48z" fill="#4db6e4"/><ellipse cx="256" cy="120" fill="#4db6e4" rx="72" ry="96"/><g fill="#fdc8a2"><rect height="48" rx="24" width="96" x="256" y="328"/><rect height="48" rx="24" width="96" x="256" y="280"/><rect height="48" rx="24" width="96" x="256" y="376"/><rect height="48" rx="24" width="96" x="256" y="424"/><path d="m384 280-31.6-31.6a28.283 28.283 0 0 1 -3.534-35.689 28.284 28.284 0 0 1 43.534-4.311l95.6 95.6v152h-104z"/></g><path d="m248 48h16v16h-16z"/><path d="m248 80h16v16h-16z"/><path d="m248 112h16v16h-16z"/><path d="m248 144h16v16h-16z"/><path d="m248 176h16v16h-16z"/><path d="m216 64h16v16h-16z"/><path d="m216 96h16v16h-16z"/><path d="m216 128h16v16h-16z"/><path d="m216 160h16v16h-16z"/><path d="m280 64h16v16h-16z"/><path d="m280 96h16v16h-16z"/><path d="m280 128h16v16h-16z"/><path d="m280 160h16v16h-16z"/><path d="m493.657 298.343-95.6-95.6a36.5 36.5 0 0 0 -6.057-4.879v-77.864a104.118 104.118 0 0 0 -104-104h-32c-23.165 0-45.146 12.954-60.309 35.541l13.285 8.918c12.14-18.086 29.28-28.459 47.024-28.459 35.29 0 64 39.477 64 88s-28.71 88-64 88-64-39.477-64-88a113.456 113.456 0 0 1 8.971-44.816l-14.678-6.368a129.584 129.584 0 0 0 -10.293 51.184c0 27.362 8.058 53.175 22.688 72.683 15.147 20.195 35.5 31.317 57.312 31.317a72.268 72.268 0 0 1 62.366 36l13.851-8a88.286 88.286 0 0 0 -42.817-37.371 83.518 83.518 0 0 0 23.914-21.946c14.628-19.508 22.686-45.321 22.686-72.683s-8.058-53.175-22.688-72.683a89.357 89.357 0 0 0 -13.575-14.532 88.131 88.131 0 0 1 76.263 87.215v72.3a36.565 36.565 0 0 0 -7.18-.012 36.286 36.286 0 0 0 -22.081 61.766l29.261 29.259v164.687h-16a31.923 31.923 0 0 0 -10.868-24 31.934 31.934 0 0 0 0-48 31.934 31.934 0 0 0 0-48 31.979 31.979 0 0 0 -21.132-56h-48a31.979 31.979 0 0 0 -21.132 56 31.934 31.934 0 0 0 0 48 31.934 31.934 0 0 0 0 48 31.979 31.979 0 0 0 21.132 56h48v8a8 8 0 0 0 8 8h48a8 8 0 0 0 8-8v-208a8 8 0 0 0 -2.343-5.657l-31.6-31.6a20.284 20.284 0 1 1 28.686-28.686l93.257 93.256v140.687h-72v16h80a8 8 0 0 0 8-8v-152a8 8 0 0 0 -2.343-5.657zm-229.657 5.657a16.019 16.019 0 0 1 16-16h48a16 16 0 0 1 0 32h-48a16.019 16.019 0 0 1 -16-16zm0 48a16.019 16.019 0 0 1 16-16h48a16 16 0 0 1 0 32h-48a16.019 16.019 0 0 1 -16-16zm0 48a16.019 16.019 0 0 1 16-16h48a16 16 0 0 1 0 32h-48a16.019 16.019 0 0 1 -16-16zm16 64a16 16 0 0 1 0-32h48a16 16 0 0 1 0 32zm96 16h-32v-4.3a32.238 32.238 0 0 0 11.7-11.7h20.3z"/><path d="m22.002 67.872h16v28.24h-16z" transform="matrix(.129 -.992 .992 .129 -55.175 101.165)"/><path d="m78.01 75.161h16v28.24h-16z" transform="matrix(.129 -.992 .992 .129 -13.622 163.053)"/><path d="m134.018 82.451h16v28.239h-16z" transform="matrix(.129 -.992 .992 .129 27.931 224.941)"/><path d="m39.482-1.711h16.001v28.176h-16.001z" transform="matrix(.311 -.951 .951 .311 20.968 53.665)"/><path d="m93.045 15.793h16.001v28.176h-16.001z" transform="matrix(.311 -.951 .951 .311 41.252 116.645)"/><path d="m146.609 33.299h16v28.175h-16z" transform="matrix(.311 -.951 .951 .311 61.541 179.628)"/><path d="m15.882 150.005h28.24v16.001h-28.24z" transform="matrix(.992 -.129 .129 .992 -20.13 5.19)"/><path d="m71.89 142.721h28.24v16.001h-28.24z" transform="matrix(.992 -.129 .129 .992 -18.722 12.353)"/><path d="m127.899 135.437h28.24v16.001h-28.24z" transform="matrix(.992 -.129 .129 .992 -17.311 19.511)"/><path d="m33.394 219.623h28.176v16.001h-28.176z" transform="matrix(.951 -.311 .311 .951 -68.363 26.013)"/><path d="m86.958 202.118h28.176v16.001h-28.176z" transform="matrix(.951 -.311 .311 .951 -60.275 41.787)"/><path d="m140.521 184.613h28.175v16h-28.175z" transform="matrix(.951 -.311 .311 .951 -52.179 57.548)"/></g></svg>