<svg height="512" viewBox="0 0 512 512" width="512" xmlns="http://www.w3.org/2000/svg"><g id="Filled_outline" data-name="Filled outline"><path d="m144 336-32 32h-32a32 32 0 0 0 -32 32v16h96l40-40z" fill="#78462f"/><path d="m488 294.2v121.8h-408v-16a32 32 0 0 1 32-32h21.44l-97.38-135.25a64 64 0 0 1 -12.06-37.39v-22.46c0-1.2.06-2.39.17-3.58a38.72 38.72 0 0 1 7.57-19.64 134.214 134.214 0 0 1 208.36-7.85 53.19 53.19 0 0 0 40.04 18.17h73.66a134.208 134.208 0 0 1 134.2 134.2z" fill="#91563a"/><path d="m100 136a20 20 0 1 0 20 20 20.023 20.023 0 0 0 -20-20z" fill="#61311c"/><path d="m480 408h-160v-16h-16v16h-16v-8a24.028 24.028 0 0 1 24-24h32a8 8 0 0 0 8-8 64.072 64.072 0 0 1 64-64h16v-16h-16a80.117 80.117 0 0 0 -79.6 72h-24.4a40.045 40.045 0 0 0 -40 40v8h-76.686l26.343-26.343-11.314-11.314-37.656 37.657h-52.687v-16h-16v16h-16v-8a24.028 24.028 0 0 1 24-24h32a8 8 0 0 0 5.657-2.343l32-32-11.314-11.314-29.656 29.657h-3.147l-6.578-9.145-88.41-122.779a55.66 55.66 0 0 1 -10.552-32.716v-3.36a8.009 8.009 0 0 1 8-8h8v-16h-8a23.906 23.906 0 0 0 -7.759 1.294 30.933 30.933 0 0 1 5.9-14.815 126.237 126.237 0 0 1 19.159-20.387l-10.367-12.184a142.243 142.243 0 0 0 -21.595 22.975 47.016 47.016 0 0 0 -9.338 28.017v22.46a71.572 71.572 0 0 0 13.567 42.065l84.433 117.259-5.313 5.316h-28.687a40.045 40.045 0 0 0 -40 40v16a8 8 0 0 0 8 8h440a8 8 0 0 0 8-8v-72h-16zm-424-8a24.028 24.028 0 0 1 24-24h.022a39.788 39.788 0 0 0 -8.022 24v8h-16z"/><path d="m353.8 152h-73.66a45.59 45.59 0 0 1 -18.678-4.037 44.876 44.876 0 0 1 -15.342-11.4 142.247 142.247 0 0 0 -107.02-48.563 142.315 142.315 0 0 0 -79.575 24.345l8.95 13.263a126.292 126.292 0 0 1 70.625-21.608 126.247 126.247 0 0 1 94.98 43.1 61.179 61.179 0 0 0 46.06 20.9h73.66a126.343 126.343 0 0 1 126.2 126.2v33.8h16v-33.8c0-78.409-63.791-142.2-142.2-142.2z"/><path d="m120 156a20 20 0 1 0 -20 20 20.023 20.023 0 0 0 20-20zm-24 0a4 4 0 1 1 4 4 4 4 0 0 1 -4-4z"/><path d="m136 128v40a32 32 0 0 0 64 0v-24h-16v24a16 16 0 0 1 -32 0v-40z"/><path d="m224 200h32v16h-32z"/><path d="m288 200h32v16h-32z"/><path d="m352 200h32v16h-32z"/><path d="m248 232h32v16h-32z"/><path d="m312 232h32v16h-32z"/></g></svg>