<svg height="512" viewBox="0 0 512 512" width="512" xmlns="http://www.w3.org/2000/svg"><g id="Filled_outline" data-name="Filled outline"><circle cx="152" cy="408" fill="#34507b" r="40"/><circle cx="392" cy="408" fill="#34507b" r="40"/><path d="m320 112h32v112h-32z" fill="#c14135"/><path d="m385.662 24.024a55.8 55.8 0 0 0 -27.233 6.144 49.227 49.227 0 0 1 -44.859 0 56 56 0 1 0 -.751 100.044 52.041 52.041 0 0 1 46.362 0 56.005 56.005 0 1 0 26.481-106.188zm-97.662 71.976a16 16 0 1 1 16-16 16 16 0 0 1 -16 16zm96 0a16 16 0 1 1 16-16 16 16 0 0 1 -16 16z" fill="#d65246"/><path d="m56 416h432v-31.914c0-106.086-86-192.086-192.086-192.086a192.087 192.087 0 0 0 -145.375 66.535l-94.539 109.465z" fill="#348ed8"/><circle cx="56" cy="384" fill="#34507b" r="32"/><path d="m137.5 215.179c-13.162-33.858-41.512-45.668-66.995-35.831s-38.45 37.6-25.288 71.454 47.47 60.994 72.953 51.157 32.491-52.922 19.33-86.78z" fill="#4db6e4"/><path d="m206.5 215.179c13.162-33.858 41.512-45.668 67-35.831s38.45 37.6 25.288 71.454-47.47 60.994-72.953 51.157-32.496-52.922-19.335-86.78z" fill="#4db6e4"/><circle cx="200" cy="344" fill="#d65246" r="16"/><circle cx="136" cy="344" fill="#d65246" r="16"/><path d="m288 56a24 24 0 1 0 24 24 24.028 24.028 0 0 0 -24-24zm0 32a8 8 0 1 1 8-8 8.009 8.009 0 0 1 -8 8z"/><path d="m384 104a24 24 0 1 0 -24-24 24.028 24.028 0 0 0 24 24zm0-32a8 8 0 1 1 -8 8 8.009 8.009 0 0 1 8-8z"/><path d="m165.993 253.668a183.74 183.74 0 0 1 27.813-22.733c-3.446 18.806-1.861 38.416 4.8 53.5 5.43 12.3 13.849 20.937 24.347 24.989a39.219 39.219 0 0 0 14.206 2.6c11.052 0 22.9-4.34 34.488-12.8 14.993-10.945 27.6-27.539 34.6-45.529 7.421-19.089 7.716-37.4.852-52.942-.066-.149-.141-.293-.208-.441 4.058.243 8.106.612 12.118 1.111a184.209 184.209 0 0 1 158.439 151.9l15.78-2.652a200.3 200.3 0 0 0 -133.228-156.171v-55.176a63.934 63.934 0 0 0 69.524-104.189 63.617 63.617 0 0 0 -43.624-19.109 64.306 64.306 0 0 0 -31.123 7.028 41.135 41.135 0 0 1 -37.542 0 64 64 0 1 0 -29.235 120.946 63.368 63.368 0 0 0 24-4.676v28.676h16v-34.5a43.555 43.555 0 0 1 16 0v56.334a199.394 199.394 0 0 0 -48.6-5.838 56.355 56.355 0 0 0 -19.023-12.109c-30.279-11.691-60.785 3.153-75.55 36.164a199.8 199.8 0 0 0 -46.127 34.281zm170.007-136.938a60.107 60.107 0 0 0 -26.73 6.313 48.012 48.012 0 0 1 -69.264-43.768c.372-25.322 21.261-46.521 46.564-47.254a48.035 48.035 0 0 1 23.343 5.261 57.155 57.155 0 0 0 52.177 0 48.06 48.06 0 0 1 23.342-5.261c25.3.733 46.192 21.932 46.564 47.254a48.021 48.021 0 0 1 -69.263 43.769 60.1 60.1 0 0 0 -26.733-6.314zm-80.122 67.236a40.821 40.821 0 0 1 14.739 2.845 38.251 38.251 0 0 1 21.84 20.41c5.11 11.573 4.72 25.64-1.127 40.682-12.3 31.627-42.718 54.274-62.616 46.593-8.145-3.144-12.909-10.723-15.472-16.526-7.29-16.509-7.009-40.019.717-59.893 8.441-21.703 24.29-34.111 41.918-34.111z"/><path d="m495.309 367.34-15.946 1.32c.423 5.1.637 10.292.637 15.43v23.91h-392.022a39.93 39.93 0 0 0 -7.757-55.8l35.55-41.164a38.394 38.394 0 0 0 5.278-1.61c10.5-4.052 18.917-12.693 24.347-24.989 8.918-20.2 8.746-48.52-.442-72.153-13.98-35.966-45.786-52.576-77.332-40.4-15.734 6.073-27.289 17.992-32.534 33.56l15.162 5.11a38.413 38.413 0 0 1 23.134-23.744c23.144-8.93 45.915 3.629 56.658 31.266 7.726 19.874 8.007 43.384.717 59.893-2.563 5.8-7.327 13.382-15.472 16.526a23.214 23.214 0 0 1 -8.417 1.5c-19.236 0-43.537-20.672-54.2-48.1a63.346 63.346 0 0 1 -4.666-23.787l-16-.232a79.177 79.177 0 0 0 5.755 29.824c6.993 17.99 19.6 34.584 34.6 45.529a68 68 0 0 0 22.767 11.235l-29.9 34.621a40 40 0 1 0 -9.226 78.915h50.741a48.006 48.006 0 0 0 90.518 0h149.482a48.006 48.006 0 0 0 90.518 0h18.741v28.676a27.356 27.356 0 0 1 -27.324 27.324h-64.676a27.461 27.461 0 0 1 -23.43-13.265l-3.42-5.7a43.324 43.324 0 0 0 -74.3 0l-3.42 5.7a27.46 27.46 0 0 1 -23.43 13.265h-92v16h92a43.543 43.543 0 0 0 37.15-21.034l3.42-5.7a27.324 27.324 0 0 1 46.86 0l3.42 5.7a43.544 43.544 0 0 0 37.15 21.034h64.676a43.374 43.374 0 0 0 43.324-43.324v-28.676h16a8 8 0 0 0 8-8v-31.91c0-5.577-.232-11.213-.691-16.75zm-463.309 16.66a24 24 0 1 1 24 24 24.028 24.028 0 0 1 -24-24zm120 56a32.127 32.127 0 0 1 -27.708-16h55.416a32.127 32.127 0 0 1 -27.708 16zm240 0a32.127 32.127 0 0 1 -27.708-16h55.416a32.127 32.127 0 0 1 -27.708 16z"/><path d="m380.015 238.588-8.03 13.84a153.38 153.38 0 0 1 71.19 93.572l15.49-4a169.491 169.491 0 0 0 -78.65-103.412z"/><path d="m334 236.826a151.238 151.238 0 0 1 22.791 7.891l6.426-14.655a167.639 167.639 0 0 0 -25.217-8.726z"/><path d="m84.909 216.663a8.876 8.876 0 0 1 3.159-.663c4.215 0 8.87 5.239 12.149 13.673a57.91 57.91 0 0 1 3.783 21.394l16 .252a73.259 73.259 0 0 0 -4.87-27.445c-5.9-15.174-15.763-23.874-27.062-23.874a24.761 24.761 0 0 0 -8.922 1.737 22.581 22.581 0 0 0 -12.965 11.947c-3.356 7.6-2.87 17.426 1.4 28.422a74.8 74.8 0 0 0 14.549 23.109l11.74-10.871a58.383 58.383 0 0 1 -11.37-18.035c-2.585-6.649-3.213-12.691-1.68-16.163.432-.985 1.329-2.417 4.089-3.483z"/><path d="m243.783 229.673c3.279-8.434 7.934-13.673 12.149-13.673a8.876 8.876 0 0 1 3.159.663c2.76 1.066 3.657 2.5 4.092 3.483 1.533 3.472.905 9.514-1.679 16.162a58.4 58.4 0 0 1 -11.374 18.036l11.74 10.871a74.81 74.81 0 0 0 14.547-23.11c4.272-10.995 4.758-20.823 1.4-28.42a22.579 22.579 0 0 0 -12.965-11.948 24.761 24.761 0 0 0 -8.92-1.737c-11.3 0-21.162 8.7-27.061 23.874a73.259 73.259 0 0 0 -4.871 27.445l16-.252a57.91 57.91 0 0 1 3.783-21.394z"/><path d="m200 320a24 24 0 1 0 24 24 24.028 24.028 0 0 0 -24-24zm0 32a8 8 0 1 1 8-8 8.009 8.009 0 0 1 -8 8z"/><path d="m112 344a24 24 0 1 0 24-24 24.028 24.028 0 0 0 -24 24zm32 0a8 8 0 1 1 -8-8 8.009 8.009 0 0 1 8 8z"/></g></svg>