<svg height="512" viewBox="0 0 512 512" width="512" xmlns="http://www.w3.org/2000/svg"><g id="Filled_outline" data-name="Filled outline"><path d="m384 64h-24l-104 56-104-56h-24l-104 56v368h232 232v-368z" fill="#4db6e4"/><rect fill="#9fdce4" height="136" rx="16" width="152" x="64" y="136"/><rect fill="#9fdce4" height="136" rx="16" width="152" x="64" y="312"/><rect fill="#9fdce4" height="136" rx="16" width="152" x="296" y="136"/><rect fill="#9fdce4" height="136" rx="16" width="152" x="296" y="312"/><g fill="#87c3cb"><path d="m128 448v-56h-32v-24l24-8v-16a25.887 25.887 0 0 1 23.155 14.311l.845 1.689 16 16h56v40h-56v32z"/><path d="m160 272h-64v-96l16 8h16l16-8v17.578a47.637 47.637 0 0 0 8 26.422 47.637 47.637 0 0 1 8 26.422z"/><path d="m416 272h-80v-40h24l5.235-2.618a35.087 35.087 0 0 1 22.565-3.022 35.079 35.079 0 0 1 28.2 34.4z"/><path d="m352 248h-8a16 16 0 0 1 -16-16v-24l16 8h8l16-8v24a16 16 0 0 1 -16 16z"/><path d="m432 448h-120a16 16 0 0 1 -16-16v-24l24-16v-16a19.315 19.315 0 0 1 13.657 5.657l2.343 2.343 32-16h45.578a34.423 34.423 0 0 1 28.641 15.328 34.428 34.428 0 0 1 5.781 19.094v29.578a16 16 0 0 1 -16 16z"/></g><path d="m248 96h16v392h-16z" fill="#3ba5d3"/><path d="m256 120-104-56h-24l-104 56v-40l104-56h24l104 56z" fill="#d65246"/><path d="m488 120-104-56h-24l-104 56v-40l104-56h24l104 56z" fill="#d65246"/><path d="m491.793 72.956-104-56a8 8 0 0 0 -3.793-.956h-24a8 8 0 0 0 -3.793.956l-100.207 53.958-100.207-53.958a8 8 0 0 0 -3.793-.956h-24a8 8 0 0 0 -3.793.956l-104 56a8 8 0 0 0 -4.207 7.044v40a8 8 0 0 0 11.793 7.044l102.224-55.044h19.966l98.017 52.779v355.221h-216v-336h-16v344a8 8 0 0 0 8 8h464a8 8 0 0 0 8-8v-48h-16v40h-216v-355.221l98.017-52.779h19.966l98.017 52.779v299.221h16v-344a8 8 0 0 0 -4.207-7.044zm-339.793-16.956h-24a8 8 0 0 0 -3.793.956l-92.207 49.65v-21.828l98.017-52.778h19.966l98.017 52.778v21.828l-92.207-49.65a8 8 0 0 0 -3.793-.956zm208 0a8 8 0 0 0 -3.793.956l-92.207 49.65v-21.828l98.017-52.778h19.966l98.017 52.778v21.828l-92.207-49.65a8 8 0 0 0 -3.793-.956z"/><path d="m56 184v72a24.027 24.027 0 0 0 24 24h120a24.027 24.027 0 0 0 24-24v-104a24.027 24.027 0 0 0 -24-24h-120a24.027 24.027 0 0 0 -24 24v16h16v-16a8.009 8.009 0 0 1 8-8h120a8.009 8.009 0 0 1 8 8v104a8.009 8.009 0 0 1 -8 8h-12.3a31.8 31.8 0 0 0 4.3-16v-40h-16v40a16 16 0 0 1 -8 13.835v-15.413a55.455 55.455 0 0 0 -9.344-30.86 39.51 39.51 0 0 1 -6.656-21.984v-17.578a8 8 0 0 0 -11.578-7.155l-14.311 7.155h-12.222l-14.311-7.155a8 8 0 0 0 -11.578 7.155v88h-8a8.009 8.009 0 0 1 -8-8v-72zm48 4.944 4.422 2.211a7.994 7.994 0 0 0 3.578.845h16a7.994 7.994 0 0 0 3.578-.845l4.422-2.211v4.634a55.455 55.455 0 0 0 9.344 30.86 39.51 39.51 0 0 1 6.656 21.984v17.578h-16v-24h-16v24h-16z"/><path d="m56 360v72a24.027 24.027 0 0 0 24 24h120a24.027 24.027 0 0 0 24-24v-104a24.027 24.027 0 0 0 -24-24h-120a24.027 24.027 0 0 0 -24 24v16h16v-16a8.009 8.009 0 0 1 8-8h120a8.009 8.009 0 0 1 8 8v40h-44.687l-12.738-12.739-.264-.529a33.705 33.705 0 0 0 -30.311-18.732 8 8 0 0 0 -8 8v10.234l-18.53 6.176a8 8 0 0 0 -5.47 7.59v24a8 8 0 0 0 8 8h24v40h-40a8.009 8.009 0 0 1 -8-8v-72zm144 80h-32v-16h40v8a8.009 8.009 0 0 1 -8 8zm-72-56h-24v-10.234l18.53-6.176a8 8 0 0 0 5.47-7.59v-6.13a17.826 17.826 0 0 1 8 8.019l.845 1.689a7.986 7.986 0 0 0 1.5 2.079l16 16a8 8 0 0 0 5.655 2.343h48v24h-48a8 8 0 0 0 -8 8v24h-16v-48a8 8 0 0 0 -8-8z"/><path d="m456 152a24.027 24.027 0 0 0 -24-24h-120a24.027 24.027 0 0 0 -24 24v16h16v-16a8.009 8.009 0 0 1 8-8h120a8.009 8.009 0 0 1 8 8v104a8.009 8.009 0 0 1 -8 8h-8v-3.24a43.006 43.006 0 0 0 -48-42.776v-9.984a8 8 0 0 0 -11.578-7.155l-14.311 7.155h-4.222l-14.311-7.155a8 8 0 0 0 -11.578 7.155v24a23.943 23.943 0 0 0 8 17.869v14.131h-16a8.009 8.009 0 0 1 -8-8v-72h-16v72a24.027 24.027 0 0 0 24 24h120a24.027 24.027 0 0 0 24-24zm-120 68.944 4.422 2.211a7.994 7.994 0 0 0 3.578.845h8a7.994 7.994 0 0 0 3.578-.845l4.422-2.211v11.056a8.009 8.009 0 0 1 -8 8h-8a8.009 8.009 0 0 1 -8-8zm8 43.056v-8h8a24.03 24.03 0 0 0 23.9-21.835 27.062 27.062 0 0 1 32.1 26.6v3.235z"/><path d="m288 360v72a24.027 24.027 0 0 0 24 24h120a24.027 24.027 0 0 0 24-24v-104a24.027 24.027 0 0 0 -24-24h-120a24.027 24.027 0 0 0 -24 24v16h16v-16a8.009 8.009 0 0 1 8-8h120a8.009 8.009 0 0 1 8 8v41.225a42.338 42.338 0 0 0 -26.422-9.225h-45.578a7.994 7.994 0 0 0 -3.578.845l-26.947 13.473a27.118 27.118 0 0 0 -17.475-6.318 8 8 0 0 0 -8 8v11.719l-8 5.333v-33.052zm36.437 38.656a8 8 0 0 0 3.563-6.656v-4.686l2.344 2.343a8 8 0 0 0 9.234 1.5l30.311-15.157h43.689a26.423 26.423 0 0 1 26.422 26.422v29.578a8.009 8.009 0 0 1 -8 8h-48v-4.468a7.988 7.988 0 0 1 5.47-7.589l13.06-4.353a8 8 0 0 0 5.47-7.59 17.79 17.79 0 0 1 9.89-16l1.689-.845-7.158-14.31-1.687.844a33.671 33.671 0 0 0 -18.22 24.373l-8.1 2.7c-.14.047-.273.106-.411.155v-12.917h-16.003v40h-32v-4.468a7.988 7.988 0 0 1 5.47-7.589l13.06-4.353-5.06-15.18-13.059 4.354a23.97 23.97 0 0 0 -16.411 22.768v4.468h-8a8.009 8.009 0 0 1 -8-8v-19.719z"/></g></svg>