<svg height="512" viewBox="0 0 512 512" width="512" xmlns="http://www.w3.org/2000/svg"><g id="Filled_outline" data-name="Filled outline"><path d="m325.082 449.314-69.082 38.686-69.082-38.686a256 256 0 0 1 -130.918-223.362v-137.952a343.489 343.489 0 0 0 190.533-57.689l9.467-6.311 9.467 6.311a343.489 343.489 0 0 0 190.533 57.689v137.952a256 256 0 0 1 -130.918 223.362z" fill="#348ed8"/><path d="m202.547 421.391a224.22 224.22 0 0 1 -114.547-195.438v-107.3a373.934 373.934 0 0 0 168-56.348 373.9 373.9 0 0 0 168 56.343v107.305a224.22 224.22 0 0 1 -114.547 195.438l-53.453 29.937z" fill="#2d7dbe"/><g fill="#17588e"><path d="m296.367 336a15.632 15.632 0 0 1 -13.008-6.962l-6.718-10.076a15.632 15.632 0 0 0 -13.008-6.962h-15.266a15.632 15.632 0 0 0 -13.008 6.962l-6.718 10.076a15.632 15.632 0 0 1 -13.008 6.962 15.633 15.633 0 0 1 -15.633-15.633 87.963 87.963 0 0 1 12.537-45.261 39.351 39.351 0 0 1 33.744-19.106h19.438a39.351 39.351 0 0 1 33.744 19.106 87.963 87.963 0 0 1 12.537 45.261 15.633 15.633 0 0 1 -15.633 15.633z"/><ellipse cx="220" cy="182.333" rx="20" ry="30.333"/><ellipse cx="172" cy="241.667" rx="20" ry="30.333"/><ellipse cx="292" cy="182.333" rx="20" ry="30.333"/><ellipse cx="340" cy="241.667" rx="20" ry="30.333"/></g><path d="m321.174 442.333-65.174 36.498-65.174-36.5a248.247 248.247 0 0 1 -126.826-216.379v-65.952h-16v65.952a264.264 264.264 0 0 0 135.009 230.342l69.082 38.686a8 8 0 0 0 7.818 0l69.082-38.686a263.713 263.713 0 0 0 60.759-46.783l-11.5-11.123a247.779 247.779 0 0 1 -57.076 43.945z"/><path d="m456 80a334.425 334.425 0 0 1 -186.1-56.345l-9.467-6.311a8 8 0 0 0 -8.876 0l-9.457 6.311a334.431 334.431 0 0 1 -186.1 56.345 8 8 0 0 0 -8 8v56h16v-48.09a350.3 350.3 0 0 0 186.971-58.942l5.029-3.353 5.029 3.353a350.3 350.3 0 0 0 186.971 58.942v130.042a248.269 248.269 0 0 1 -59.241 160.86l12.179 10.376a264.285 264.285 0 0 0 63.062-171.236v-137.952a8 8 0 0 0 -8-8z"/><path d="m198.638 428.37 53.453 29.938a8 8 0 0 0 7.818 0l53.453-29.938a232.23 232.23 0 0 0 118.638-202.417v-107.3a8 8 0 0 0 -7.324-7.971 368.237 368.237 0 0 1 -164.412-55.147 8.006 8.006 0 0 0 -8.527 0 368.287 368.287 0 0 1 -164.413 55.142 8 8 0 0 0 -7.324 7.971v107.305a232.23 232.23 0 0 0 118.638 202.417zm-102.638-302.444a384.576 384.576 0 0 0 160-54.206 384.527 384.527 0 0 0 160 54.206v100.027a216.217 216.217 0 0 1 -110.456 188.458l-49.544 27.748-49.544-27.748a216.217 216.217 0 0 1 -110.456-188.458z"/><path d="m248 96h16v16h-16z"/><path d="m112 136h16v16h-16z"/><path d="m384 136h16v16h-16z"/><path d="m112 264h16v16h-16z"/><path d="m384 264h16v16h-16z"/><path d="m200 384h16v16h-16z"/><path d="m296 384h16v16h-16z"/><path d="m265.719 248h-19.438a47.593 47.593 0 0 0 -40.6 22.989 96 96 0 0 0 -13.681 49.378 23.633 23.633 0 0 0 43.3 13.109l6.719-10.077a7.619 7.619 0 0 1 6.351-3.4h15.266a7.622 7.622 0 0 1 6.352 3.4l6.717 10.077a23.634 23.634 0 0 0 43.3-13.11 95.994 95.994 0 0 0 -13.677-49.377 47.593 47.593 0 0 0 -40.609-22.989zm30.648 80a7.622 7.622 0 0 1 -6.352-3.4l-6.715-10.076a23.588 23.588 0 0 0 -19.667-10.524h-15.266a23.585 23.585 0 0 0 -19.667 10.524l-6.716 10.076a7.633 7.633 0 0 1 -13.984-4.234 79.993 79.993 0 0 1 11.4-41.144 31.513 31.513 0 0 1 26.881-15.222h19.438a31.513 31.513 0 0 1 26.881 15.222 80 80 0 0 1 11.4 41.145 7.641 7.641 0 0 1 -7.633 7.633z"/><path d="m220 220.667c15.7 0 28-16.838 28-38.334s-12.3-38.333-28-38.333-28 16.838-28 38.333 12.3 38.334 28 38.334zm0-60.667c5.665 0 12 9.551 12 22.333s-6.335 22.334-12 22.334-12-9.552-12-22.334 6.335-22.333 12-22.333z"/><path d="m200 241.667c0-21.5-12.3-38.334-28-38.334s-28 16.838-28 38.334 12.3 38.333 28 38.333 28-16.838 28-38.333zm-40 0c0-12.782 6.335-22.334 12-22.334s12 9.552 12 22.334-6.335 22.333-12 22.333-12-9.551-12-22.333z"/><path d="m292 220.667c15.7 0 28-16.838 28-38.334s-12.3-38.333-28-38.333-28 16.838-28 38.333 12.3 38.334 28 38.334zm0-60.667c5.665 0 12 9.551 12 22.333s-6.335 22.334-12 22.334-12-9.552-12-22.334 6.335-22.333 12-22.333z"/><path d="m340 280c15.7 0 28-16.838 28-38.333s-12.3-38.334-28-38.334-28 16.838-28 38.334 12.3 38.333 28 38.333zm0-60.667c5.665 0 12 9.552 12 22.334s-6.335 22.333-12 22.333-12-9.551-12-22.333 6.335-22.334 12-22.334z"/></g></svg>