<svg height="512" viewBox="0 0 512 512" width="512" xmlns="http://www.w3.org/2000/svg"><g id="Filled_outline" data-name="Filled outline"><path d="m256 24a24 24 0 0 1 24 24v80a0 0 0 0 1 0 0h-48a0 0 0 0 1 0 0v-80a24 24 0 0 1 24-24z" fill="#2d7dbe"/><path d="m208 128h96v64h-96z" fill="#348ed8"/><path d="m360 488h-208v-240a56 56 0 0 1 56-56h96a56 56 0 0 1 56 56z" fill="#7a432a"/><path d="m152 256h208v200h-208z" fill="#f96d00"/><path d="m312 456h-112v-23.029a40.971 40.971 0 0 1 12-28.971 40.971 40.971 0 0 1 28.971-12h30.058a40.971 40.971 0 0 1 28.971 12 40.971 40.971 0 0 1 12 28.971z" fill="#f9a40f"/><path d="m277.167 408h-42.334a16 16 0 0 1 -14.856-10.058l-11.977-29.942v-72l8-8h80l8 8v72l-11.977 29.942a16 16 0 0 1 -14.856 10.058z" fill="#ffb431"/><path d="m208 296-32 32 16 40h16z" fill="#f9a40f"/><path d="m304 296 32 32-16 40h-16z" fill="#f9a40f"/><path d="m256 392a7.976 7.976 0 0 1 -5.657-2.343l-8-8a8 8 0 0 1 -2.343-5.657v-8a8 8 0 0 1 8-8h16a8 8 0 0 1 8 8v8a8 8 0 0 1 -2.343 5.657l-8 8a7.976 7.976 0 0 1 -5.657 2.343z" fill="#91563a"/><path d="m368 400v-152a64.081 64.081 0 0 0 -56-63.482v-56.518a8 8 0 0 0 -8-8h-16v-72a32 32 0 0 0 -64 0v72h-16a8 8 0 0 0 -8 8v40h16v-32h80v48h-88a64.072 64.072 0 0 0 -64 64v240a8 8 0 0 0 8 8h208a8 8 0 0 0 8-8v-72h-16v32h-32v-15.03a48.582 48.582 0 0 0 -18.158-38.036l7.574-18.934h10.584a8 8 0 0 0 7.428-5.029l16-40a8 8 0 0 0 -1.771-8.628l-32-32-8-8a8 8 0 0 0 -5.657-2.343h-80a8 8 0 0 0 -5.657 2.343l-8 8-32 32a8 8 0 0 0 -1.771 8.628l16 40a8 8 0 0 0 7.428 5.029h10.584l7.574 18.934a48.566 48.566 0 0 0 -18.158 38.036v15.03h-32v-184h192v136zm-128-280v-72a16 16 0 0 1 32 0v72zm74.583 240h-2.583v-44.687l14.613 14.614zm-95.27-64h73.374l3.313 3.313v67.146l-11.4 28.513a7.962 7.962 0 0 1 -7.433 5.028h-13.167v-12.686l5.657-5.657a8 8 0 0 0 2.343-5.657v-8a8 8 0 0 0 -8-8h-16a8 8 0 0 0 -8 8v8a8 8 0 0 0 2.343 5.657l5.657 5.657v12.686h-13.167a7.962 7.962 0 0 1 -7.428-5.028l-11.405-28.513v-67.146zm-33.926 33.927 14.613-14.614v44.687h-2.583zm22.613 103.043a32.758 32.758 0 0 1 9.657-23.314c.148-.148.307-.285.458-.43a23.887 23.887 0 0 0 16.718 6.774h42.334a23.886 23.886 0 0 0 16.718-6.773c.151.145.31.282.458.43a32.976 32.976 0 0 1 9.657 23.313v15.03h-96zm-8 31.03h152v16h-192v-16zm-40-216a48.055 48.055 0 0 1 48-48h96a48.055 48.055 0 0 1 48 48z"/><path d="m232 152h16v16h-16z"/><path d="m184 235h16a4.2 4.2 0 0 1 -.063.844c.01-.044 1.183-4.459 11.641-9.689l-7.156-14.31c-19.438 9.716-20.422 20.991-20.422 23.155z"/><path d="m232 328h16v16h-16z"/><path d="m264 328h16v16h-16z"/></g></svg>