<svg height="512" viewBox="0 0 512 512" width="512" xmlns="http://www.w3.org/2000/svg"><g id="Filled_outline" data-name="Filled outline"><rect fill="#dfdfdd" height="32" rx="16" width="464" x="24" y="456"/><path d="m56 264h400v192h-400z" fill="#d5d5d3"/><g fill="#4db6e4"><path d="m88 344h240v80h-240z"/><path d="m360 344h64v112h-64z"/><path d="m224 192h64v72h-64z"/><path d="m160 264h-64l16-72h56z"/><path d="m416 264h-64l-8-72h56z"/></g><path d="m224 264h-64l8-72h56z" fill="#348ed8"/><path d="m96 264h-64l24-72h56z" fill="#348ed8"/><path d="m352 264h-64v-72h56z" fill="#348ed8"/><path d="m480 264h-64l-16-72h56z" fill="#348ed8"/><path d="m224 264h64a0 0 0 0 1 0 0v16a32 32 0 0 1 -32 32 32 32 0 0 1 -32-32v-16a0 0 0 0 1 0 0z" fill="#3ba5d3"/><path d="m96 264h64a0 0 0 0 1 0 0v16a32 32 0 0 1 -32 32 32 32 0 0 1 -32-32v-16a0 0 0 0 1 0 0z" fill="#3ba5d3"/><path d="m352 264h64a0 0 0 0 1 0 0v16a32 32 0 0 1 -32 32 32 32 0 0 1 -32-32v-16a0 0 0 0 1 0 0z" fill="#3ba5d3"/><path d="m160 264h64a0 0 0 0 1 0 0v16a32 32 0 0 1 -32 32 32 32 0 0 1 -32-32v-16a0 0 0 0 1 0 0z" fill="#2b78b7"/><path d="m32 264h64a0 0 0 0 1 0 0v16a32 32 0 0 1 -32 32 32 32 0 0 1 -32-32v-16a0 0 0 0 1 0 0z" fill="#2b78b7"/><path d="m288 264h64a0 0 0 0 1 0 0v16a32 32 0 0 1 -32 32 32 32 0 0 1 -32-32v-16a0 0 0 0 1 0 0z" fill="#2b78b7"/><path d="m416 264h64a0 0 0 0 1 0 0v16a32 32 0 0 1 -32 32 32 32 0 0 1 -32-32v-16a0 0 0 0 1 0 0z" fill="#2b78b7"/><path d="m440 64a40 40 0 0 0 -79.2-8h-209.6a40 40 0 1 0 -67.755 36 40 40 0 1 0 67.755 36h209.6a40 40 0 1 0 67.753-36 39.865 39.865 0 0 0 11.447-28z" fill="#4db6e4"/><path d="m152 128h32v64h-32z" fill="#dfdfdd"/><path d="m328 128h32v64h-32z" fill="#dfdfdd"/><path d="m152 128h32v16h-32z" fill="#d5d5d3"/><path d="m328 128h32v16h-32z" fill="#d5d5d3"/><path d="m88 344h240v16h-240z" fill="#4aaeda"/><path d="m360 344h64v16h-64z" fill="#4aaeda"/><path d="m472 448h-40v-104a8 8 0 0 0 -8-8h-64a8 8 0 0 0 -8 8v104h-288v-112h-16v112h-8a24 24 0 0 0 0 48h432a24 24 0 0 0 0-48zm-104-96h48v96h-48zm104 128h-432a8 8 0 0 1 0-16h432a8 8 0 0 1 0 16z"/><path d="m88 336a8 8 0 0 0 -8 8v80a8 8 0 0 0 8 8h240a8 8 0 0 0 8-8v-80a8 8 0 0 0 -8-8zm232 80h-224v-64h224z"/><path d="m64 320a39.964 39.964 0 0 0 32-16.028 39.958 39.958 0 0 0 64 0 39.958 39.958 0 0 0 64 0 39.958 39.958 0 0 0 64 0 39.958 39.958 0 0 0 64 0 39.958 39.958 0 0 0 64 0 39.964 39.964 0 0 0 32 16.028v112h16v-115.35a40.052 40.052 0 0 0 24-36.65v-16a8.692 8.692 0 0 0 -.4-2.48c0-.017-.008-.034-.013-.05l-24-72a8 8 0 0 0 -7.587-5.47h-88v-28.269a47.983 47.983 0 0 0 70.989-63.731 48 48 0 0 0 -38.989-76 48.177 48.177 0 0 0 -45.264 32h-197.472a48.177 48.177 0 0 0 -45.264-32 47.6 47.6 0 0 0 -28.8 9.6l9.61 12.793a31.714 31.714 0 0 1 19.19-6.393 32.08 32.08 0 0 1 31.358 25.592 8 8 0 0 0 7.842 6.408h209.6a8 8 0 0 0 7.84-6.408 32 32 0 1 1 54.2 28.806 8 8 0 0 0 0 11.2 32 32 0 1 1 -54.2 28.806 8 8 0 0 0 -7.84-6.404h-209.6a8 8 0 0 0 -7.84 6.408 32 32 0 1 1 -54.203-28.808c.019-.02.035-.041.054-.061a31.7 31.7 0 0 1 22.789-9.539v-16a47.631 47.631 0 0 0 -27.381 8.556 32.042 32.042 0 0 1 -1.96-29.356l-14.659-6.4a48.055 48.055 0 0 0 5.011 47.2 47.979 47.979 0 0 0 70.989 63.731v28.269h-88a8 8 0 0 0 -7.59 5.47s-24.01 72.03-24.01 72.05c-.637 1.969-.4 16.143-.4 18.48a40.045 40.045 0 0 0 40 40zm0-16a24.028 24.028 0 0 1 -24-24v-8h48v8a24.028 24.028 0 0 1 -24 24zm111.16-104h40.84v56h-47.062zm56.84 0h48v56h-48zm64 0h40.84l3.733 33.6 2.489 22.4h-47.062zm97.583 0 12.444 56h-46.867l-3.733-33.6-2.489-22.4zm-240.743 56h-46.867l12.444-56h40.645zm-24.84 48a24.028 24.028 0 0 1 -24-24v-8h48v8a24.028 24.028 0 0 1 -24 24zm64 0a24.028 24.028 0 0 1 -24-24v-8h48v8a24.028 24.028 0 0 1 -24 24zm64 0a24.028 24.028 0 0 1 -24-24v-8h48v8a24.028 24.028 0 0 1 -24 24zm64 0a24.028 24.028 0 0 1 -24-24v-8h48v8a24.028 24.028 0 0 1 -24 24zm64 0a24.028 24.028 0 0 1 -24-24v-8h48v8a24.028 24.028 0 0 1 -24 24zm88-24a24 24 0 0 1 -48 0v-8h48zm-3.1-24h-46.483l-12.444-56h40.261zm-132.9-72v-48h16v48zm-176-48h160v48h-128v-32h-16v32h-16zm-98.234 64h40.261l-12.444 56h-46.483z"/><path d="m185.373 375.999h45.255v16.001h-45.255z" transform="matrix(.707 -.707 .707 .707 -210.607 259.549)"/><path d="m155.029 371.999h33.941v16.001h-33.941z" transform="matrix(.707 -.707 .707 .707 -218.323 232.922)"/><path d="m235.029 371.999h33.941v16.001h-33.941z" transform="matrix(.707 -.707 .707 .707 -194.891 289.49)"/><path d="m152 80h16v16h-16z"/><path d="m184 80h168v16h-168z"/></g></svg>